<?xml version="1.0" encoding="UTF-8"?>
<svg version="1.1" xmlns="http://www.w3.org/2000/svg" width="98" height="98">
<path d="M0 0 C32.34 0 64.68 0 98 0 C98 32.34 98 64.68 98 98 C65.66 98 33.32 98 0 98 C0 65.66 0 33.32 0 0 Z " fill="#394053" transform="translate(0,0)"/>
<path d="M0 0 C8.21872158 0.80657505 14.91978471 2.12864707 21 8 C28.54948983 17.53472604 28.54948983 17.53472604 28 24 C28.66 22.68 29.32 21.36 30 20 C30.66 20 31.32 20 32 20 C32 21.32 32 22.64 32 24 C32.99 23.34 33.98 22.68 35 22 C35.99 22 36.98 22 38 22 C38 23.32 38 24.64 38 26 C39.32 26.66 40.64 27.32 42 28 C41.67 29.32 41.34 30.64 41 32 C39.68 32 38.36 32 37 32 C37.495 33.98 37.495 33.98 38 36 C36.02 36 34.04 36 32 36 C32 36.99 32 37.98 32 39 C30.68 38.34 29.36 37.68 28 37 C27.505 38.175625 27.01 39.35125 26.5 40.5625 C23.22180145 47.14222947 17.41715767 51.59088499 11 55 C12.134375 55.309375 13.26875 55.61875 14.4375 55.9375 C18 57 18 57 19 58 C19.07226502 59.85287502 19.0838122 61.70833878 19.0625 63.5625 C19.05347656 64.57441406 19.04445313 65.58632812 19.03515625 66.62890625 C19.02355469 67.41136719 19.01195313 68.19382812 19 69 C18.34 69 17.68 69 17 69 C17 67.35 17 65.7 17 64 C16.34 64 15.68 64 15 64 C15 65.65 15 67.3 15 69 C14.34 69 13.68 69 13 69 C13 65.04 13 61.08 13 57 C12.34 57 11.68 57 11 57 C11 57.66 11 58.32 11 59 C10.01 59 9.02 59 8 59 C8 59.99 8 60.98 8 62 C8.99 62 9.98 62 11 62 C11 62.66 11 63.32 11 64 C10.01 64 9.02 64 8 64 C8 64.99 8 65.98 8 67 C8.99 67 9.98 67 11 67 C11 67.66 11 68.32 11 69 C9.35 69 7.7 69 6 69 C6 65.04 6 61.08 6 57 C5.34 57 4.68 57 4 57 C4.020625 58.2375 4.04125 59.475 4.0625 60.75 C4.06766681 63.6640825 3.93015558 66.20953327 3 69 C0.69 69 -1.62 69 -4 69 C-4.33 67.68 -4.66 66.36 -5 65 C-5.66 66.32 -6.32 67.64 -7 69 C-8.66611905 69.042721 -10.33382885 69.04063832 -12 69 C-13 68 -13 68 -13.1328125 65.75 C-13.13023438 64.8425 -13.12765625 63.935 -13.125 63 C-13.12886719 61.63875 -13.12886719 61.63875 -13.1328125 60.25 C-13 58 -13 58 -12 57 C-10.31391034 56.92794489 -8.62499341 56.91613932 -6.9375 56.9375 C-6.01839844 56.94652344 -5.09929688 56.95554688 -4.15234375 56.96484375 C-3.44207031 56.97644531 -2.73179688 56.98804688 -2 57 C-1.34 55.02 -0.68 53.04 0 51 C0.99 51 1.98 51 3 51 C1.68 51 0.36 51 -1 51 C-1.33 52.65 -1.66 54.3 -2 56 C-9.04339554 55.84688271 -13.83330447 52.65168729 -19 48 C-20.99495144 45.39063386 -22.75462217 42.76544855 -24.4296875 39.94140625 C-25.20699219 38.98041016 -25.20699219 38.98041016 -26 38 C-27.32 38 -28.64 38 -30 38 C-28.88113153 40.23773694 -27.64373461 41.42395878 -25.83984375 43.15234375 C-25.21142578 43.76400391 -24.58300781 44.37566406 -23.93554688 45.00585938 C-22.6034426 46.29369039 -21.26749277 47.57755549 -19.92773438 48.85742188 C-19.30060547 49.47037109 -18.67347656 50.08332031 -18.02734375 50.71484375 C-17.15710571 51.55196899 -17.15710571 51.55196899 -16.26928711 52.40600586 C-15 54 -15 54 -15 57 C-14.67 57.33 -14.34 57.66 -14 58 C-13.95919217 59.99958364 -13.95745644 62.00045254 -14 64 C-15.98 64.495 -15.98 64.495 -18 65 C-18 66.65 -18 68.3 -18 70 C-13.71 70.33 -9.42 70.66 -5 71 C-4.67 72.32 -4.34 73.64 -4 75 C-5 76 -5 76 -7.21484375 76.09765625 C-8.11332031 76.08605469 -9.01179688 76.07445313 -9.9375 76.0625 C-10.83339844 76.05347656 -11.72929688 76.04445313 -12.65234375 76.03515625 C-13.42707031 76.02355469 -14.20179687 76.01195313 -15 76 C-15.66 76 -16.32 76 -17 76 C-21.66666667 76 -26.33333333 76 -31 76 C-31.33 74.35 -31.66 72.7 -32 71 C-28.7 71 -25.4 71 -22 71 C-23.51289964 69.48710036 -25.01712367 68.79315053 -27 68 C-28.98 68.495 -28.98 68.495 -31 69 C-31.495 64.05 -31.495 64.05 -32 59 C-32.99 59 -33.98 59 -35 59 C-35 59.99 -35 60.98 -35 62 C-34.34 62 -33.68 62 -33 62 C-33 62.66 -33 63.32 -33 64 C-33.66 64 -34.32 64 -35 64 C-35 64.99 -35 65.98 -35 67 C-34.01 67 -33.02 67 -32 67 C-32 67.66 -32 68.32 -32 69 C-33.98 69 -35.96 69 -38 69 C-38.1953125 66.94921875 -38.390625 64.8984375 -38.5859375 62.84765625 C-38.79089844 61.93306641 -38.79089844 61.93306641 -39 61 C-39.66 60.67 -40.32 60.34 -41 60 C-41.42152344 60.5053125 -41.84304687 61.010625 -42.27734375 61.53125 C-43.09912109 62.50578125 -43.09912109 62.50578125 -43.9375 63.5 C-44.75541016 64.47453125 -44.75541016 64.47453125 -45.58984375 65.46875 C-46.05519531 65.9740625 -46.52054688 66.479375 -47 67 C-47.33 67 -47.66 67 -48 67 C-48.08751413 63.12514365 -48.14056435 59.25054357 -48.1875 55.375 C-48.21263672 54.28058594 -48.23777344 53.18617187 -48.26367188 52.05859375 C-48.33605131 44.09685577 -47.06104894 39.26606059 -42 33 C-42.66 32.34 -43.32 31.68 -44 31 C-43.34 31 -42.68 31 -42 31 C-41.67 30.01 -41.34 29.02 -41 28 C-39.02 27.67 -37.04 27.34 -35 27 C-35.33 25.68 -35.66 24.36 -36 23 C-34 23 -32 23 -30 23 C-29.67 22.01 -29.34 21.02 -29 20 C-28.34 20.33 -27.68 20.66 -27 21 C-26.67 21.99 -26.34 22.98 -26 24 C-25.979375 23.030625 -25.95875 22.06125 -25.9375 21.0625 C-25.00551296 14.49864841 -19.68308432 9.2961119 -14.875 5.0625 C-10.52495894 1.94181837 -7.36556244 0.69339643 -2 1 C-2.33 1.66 -2.66 2.32 -3 3 C-3.99 3.33 -4.98 3.66 -6 4 C-4.68 4 -3.36 4 -2 4 C-1.34 2.68 -0.68 1.36 0 0 Z " fill="#7C948E" transform="translate(48,7)"/>
<path d="M0 0 C1.32 1.65 2.64 3.3 4 5 C2.60974609 6.37285156 2.60974609 6.37285156 1.19140625 7.7734375 C-0.01836039 8.9738261 -1.22798865 10.17435417 -2.4375 11.375 C-3.04916016 11.97828125 -3.66082031 12.5815625 -4.29101562 13.203125 C-5.1659668 14.07324219 -5.1659668 14.07324219 -6.05859375 14.9609375 C-6.59798584 15.49509277 -7.13737793 16.02924805 -7.69311523 16.57958984 C-9.10846977 17.98652388 -9.10846977 17.98652388 -10 20 C-8.35 19.01 -6.7 18.02 -5 17 C-5.33 17.598125 -5.66 18.19625 -6 18.8125 C-7.20787988 21.05386471 -7.20787988 21.05386471 -7 24 C-6.34 23.34 -5.68 22.68 -5 22 C-5 25.96 -5 29.92 -5 34 C-4.34 34 -3.68 34 -3 34 C-3 32.35 -3 30.7 -3 29 C-2.01 30.98 -2.01 30.98 -1 33 C-0.34 33 0.32 33 1 33 C1.495 32.01 1.495 32.01 2 31 C2 31.99 2 32.98 2 34 C5.3 34 8.6 34 12 34 C11.896875 32.906875 11.79375 31.81375 11.6875 30.6875 C11.790625 29.470625 11.89375 28.25375 12 27 C14.1875 25.3125 14.1875 25.3125 17 24 C18.65 22.68 20.3 21.36 22 20 C22 31.88 22 43.76 22 56 C-10.34 56 -42.68 56 -76 56 C-76 32 -76 32 -69 24 C-68.01 23.34 -67.02 22.68 -66 22 C-66 25.96 -66 29.92 -66 34 C-64.02 34 -62.04 34 -60 34 C-60 33.34 -60 32.68 -60 32 C-60.99 32 -61.98 32 -63 32 C-63 31.01 -63 30.02 -63 29 C-62.34 29 -61.68 29 -61 29 C-61 28.34 -61 27.68 -61 27 C-61.66 27 -62.32 27 -63 27 C-63 26.01 -63 25.02 -63 24 C-61.68 23.67 -60.36 23.34 -59 23 C-59 26.63 -59 30.26 -59 34 C-58.01 34 -57.02 34 -56 34 C-55.67 33.34 -55.34 32.68 -55 32 C-54.34 32.33 -53.68 32.66 -53 33 C-52.67 32.34 -52.34 31.68 -52 31 C-51.67 31.99 -51.34 32.98 -51 34 C-50.34 34.33 -49.68 34.66 -49 35 C-49.33 36.32 -49.66 37.64 -50 39 C-50 38.01 -50 37.02 -50 36 C-51.485 36.495 -51.485 36.495 -53 37 C-54.99961564 37.03920815 -57.00049364 37.04443347 -59 37 C-59 38.32 -59 39.64 -59 41 C-58.34 41 -57.68 41 -57 41 C-56.67 39.68 -56.34 38.36 -56 37 C-55.34 37.99 -54.68 38.98 -54 40 C-51.86746355 40.47687303 -51.86746355 40.47687303 -49.5 40.375 C-48.7059375 40.38273437 -47.911875 40.39046875 -47.09375 40.3984375 C-46.05734375 40.20121094 -46.05734375 40.20121094 -45 40 C-44.34 39.01 -43.68 38.02 -43 37 C-43 38.32 -43 39.64 -43 41 C-42.34 41 -41.68 41 -41 41 C-40.67 39.68 -40.34 38.36 -40 37 C-40 38.32 -40 39.64 -40 41 C-37.69 40.67 -35.38 40.34 -33 40 C-33 39.01 -33 38.02 -33 37 C-37.95 36.67 -42.9 36.34 -48 36 C-47.01 35.505 -47.01 35.505 -46 35 C-46 33.35 -46 31.7 -46 30 C-44.68 29.67 -43.36 29.34 -42 29 C-42.66 26.69 -43.32 24.38 -44 22 C-46.64 21.67 -49.28 21.34 -52 21 C-52 20.67 -52 20.34 -52 20 C-48.04 19.505 -48.04 19.505 -44 19 C-44.6815918 18.33411865 -44.6815918 18.33411865 -45.37695312 17.65478516 C-47.42313518 15.65005141 -49.4616229 13.63766784 -51.5 11.625 C-52.21542969 10.92632812 -52.93085937 10.22765625 -53.66796875 9.5078125 C-54.34472656 8.8375 -55.02148438 8.1671875 -55.71875 7.4765625 C-56.34716797 6.85861816 -56.97558594 6.24067383 -57.62304688 5.60400391 C-59 4 -59 4 -59 2 C-59.66 1.67 -60.32 1.34 -61 1 C-60.01 1 -59.02 1 -58 1 C-57.67 1.66 -57.34 2.32 -57 3 C-55.68 2.67 -54.36 2.34 -53 2 C-52.68289062 2.64066406 -52.36578125 3.28132813 -52.0390625 3.94140625 C-47.95679034 11.50826984 -42.90693478 16.66030825 -34.80078125 19.87109375 C-32.73492103 20.51102915 -32.73492103 20.51102915 -30 21 C-30 20.34 -30 19.68 -30 19 C-31.32 18.67 -32.64 18.34 -34 18 C-32.68 18 -31.36 18 -30 18 C-29.34 16.68 -28.68 15.36 -28 14 C-27.01 14 -26.02 14 -25 14 C-24.505 15.98 -24.505 15.98 -24 18 C-25.32 17.67 -26.64 17.34 -28 17 C-28.66 19.97 -29.32 22.94 -30 26 C-30.495 24.02 -30.495 24.02 -31 22 C-31.99 22 -32.98 22 -34 22 C-34.33 22.66 -34.66 23.32 -35 24 C-35 23.34 -35 22.68 -35 22 C-36.65 22.33 -38.3 22.66 -40 23 C-40 26.3 -40 29.6 -40 33 C-38.35 33 -36.7 33 -35 33 C-34.67 30.36 -34.34 27.72 -34 25 C-33.67 25 -33.34 25 -33 25 C-32.505 29.455 -32.505 29.455 -32 34 C-31.01 34 -30.02 34 -29 34 C-28.67 33.01 -28.34 32.02 -28 31 C-28 31.99 -28 32.98 -28 34 C-27.01 34 -26.02 34 -25 34 C-24.67 30.04 -24.34 26.08 -24 22 C-23.34 22 -22.68 22 -22 22 C-22 25.96 -22 29.92 -22 34 C-20.35 34 -18.7 34 -17 34 C-17 33.34 -17 32.68 -17 32 C-17.99 32 -18.98 32 -20 32 C-20 31.01 -20 30.02 -20 29 C-19.01 29 -18.02 29 -17 29 C-17 28.34 -17 27.68 -17 27 C-17.99 27 -18.98 27 -20 27 C-20 26.01 -20 25.02 -20 24 C-19.01 24 -18.02 24 -17 24 C-17 23.34 -17 22.68 -17 22 C-16.34 22 -15.68 22 -15 22 C-15 25.96 -15 29.92 -15 34 C-14.34 34 -13.68 34 -13 34 C-13 32.35 -13 30.7 -13 29 C-12.34 29 -11.68 29 -11 29 C-11 30.65 -11 32.3 -11 34 C-10.34 34 -9.68 34 -9 34 C-9.14037521 32.18706911 -9.28744889 30.3746557 -9.4375 28.5625 C-9.51871094 27.55316406 -9.59992188 26.54382813 -9.68359375 25.50390625 C-9.73211468 23.06359221 -9.73211468 23.06359221 -11 22 C-12.84891946 21.76636119 -14.70488031 21.58696365 -16.5625 21.4375 C-18.08037109 21.31181641 -18.08037109 21.31181641 -19.62890625 21.18359375 C-20.41136719 21.12300781 -21.19382813 21.06242187 -22 21 C-22 20.67 -22 20.34 -22 20 C-21.175 19.773125 -20.35 19.54625 -19.5 19.3125 C-10.51960723 15.94485271 -4.65059407 10.78311433 -0.625 2 C-0.41875 1.34 -0.2125 0.68 0 0 Z " fill="#2F3749" transform="translate(76,42)"/>
<path d="M0 0 C8.21872158 0.80657505 14.91978471 2.12864707 21 8 C28.54948983 17.53472604 28.54948983 17.53472604 28 24 C28.66 22.68 29.32 21.36 30 20 C30.66 20 31.32 20 32 20 C32 21.32 32 22.64 32 24 C32.99 23.34 33.98 22.68 35 22 C35.99 22 36.98 22 38 22 C38 23.32 38 24.64 38 26 C39.32 26.66 40.64 27.32 42 28 C41.67 29.32 41.34 30.64 41 32 C39.68 32 38.36 32 37 32 C37.495 33.98 37.495 33.98 38 36 C36.02 36 34.04 36 32 36 C32 36.99 32 37.98 32 39 C30.68 38.34 29.36 37.68 28 37 C27.505 38.175625 27.01 39.35125 26.5 40.5625 C23.22180145 47.14222947 17.41715767 51.59088499 11 55 C12.134375 55.309375 13.26875 55.61875 14.4375 55.9375 C18 57 18 57 19 58 C19.07226502 59.85287502 19.0838122 61.70833878 19.0625 63.5625 C19.05347656 64.57441406 19.04445312 65.58632812 19.03515625 66.62890625 C19.02355469 67.41136719 19.01195312 68.19382812 19 69 C18.34 69 17.68 69 17 69 C17 67.35 17 65.7 17 64 C16.34 64 15.68 64 15 64 C15 65.65 15 67.3 15 69 C14.34 69 13.68 69 13 69 C13 65.04 13 61.08 13 57 C12.34 57 11.68 57 11 57 C11 57.66 11 58.32 11 59 C10.01 59 9.02 59 8 59 C8 59.99 8 60.98 8 62 C8.99 62 9.98 62 11 62 C11 62.66 11 63.32 11 64 C10.01 64 9.02 64 8 64 C8 64.99 8 65.98 8 67 C8.99 67 9.98 67 11 67 C11 67.66 11 68.32 11 69 C9.35 69 7.7 69 6 69 C6 65.04 6 61.08 6 57 C5.34 57 4.68 57 4 57 C4.020625 58.2375 4.04125 59.475 4.0625 60.75 C4.06766681 63.6640825 3.93015558 66.20953327 3 69 C0.69 69 -1.62 69 -4 69 C-4.33 67.68 -4.66 66.36 -5 65 C-5.66 66.32 -6.32 67.64 -7 69 C-8.66611905 69.042721 -10.33382885 69.04063832 -12 69 C-13 68 -13 68 -13.1328125 65.75 C-13.13023438 64.8425 -13.12765625 63.935 -13.125 63 C-13.12757812 62.0925 -13.13015625 61.185 -13.1328125 60.25 C-13 58 -13 58 -12 57 C-10.31391034 56.92794489 -8.62499341 56.91613932 -6.9375 56.9375 C-6.01839844 56.94652344 -5.09929688 56.95554688 -4.15234375 56.96484375 C-3.44207031 56.97644531 -2.73179688 56.98804688 -2 57 C-1.34 55.02 -0.68 53.04 0 51 C0.99 51 1.98 51 3 51 C3.33 49.02 3.66 47.04 4 45 C4.66 45 5.32 45 6 45 C6 45.99 6 46.98 6 48 C6.66 48.33 7.32 48.66 8 49 C8 47.02 8 45.04 8 43 C8.66 43 9.32 43 10 43 C10.33 43.66 10.66 44.32 11 45 C11.99 45 12.98 45 14 45 C14 43.35 14 41.7 14 40 C14.66 40 15.32 40 16 40 C16 40.66 16 41.32 16 42 C16.99 42 17.98 42 19 42 C19 41.34 19 40.68 19 40 C18.1028125 39.566875 18.1028125 39.566875 17.1875 39.125 C15 38 15 38 12 36 C11.01 36.66 10.02 37.32 9 38 C9.66 38 10.32 38 11 38 C10.67 38.66 10.34 39.32 10 40 C9.01 40 8.02 40 7 40 C6.505 39.505 6.505 39.505 6 39 C3.96994518 39 1.93935573 39.00357588 -0.08984375 39.0625 C-2 39 -2 39 -4 38 C-4 38.66 -4 39.32 -4 40 C-4.66 39.67 -5.32 39.34 -6 39 C-5.1875 36.5625 -5.1875 36.5625 -4 34 C-2.515 33.505 -2.515 33.505 -1 33 C-1 28.71 -1 24.42 -1 20 C-2.98 20 -4.96 20 -7 20 C-7 20.66 -7 21.32 -7 22 C-7.66 22 -8.32 22 -9 22 C-8.375 20.0625 -8.375 20.0625 -7 18 C-3.875 17.25 -3.875 17.25 -1 17 C-1.33 16.34 -1.66 15.68 -2 15 C-2.99 15.33 -3.98 15.66 -5 16 C-5 15.34 -5 14.68 -5 14 C-5.66 14 -6.32 14 -7 14 C-7.33 13.01 -7.66 12.02 -8 11 C-8.99 10.34 -9.98 9.68 -11 9 C-11 8.01 -11 7.02 -11 6 C-7.62902617 4.50178941 -5.79557881 4 -2 4 C-1.34 2.68 -0.68 1.36 0 0 Z " fill="#705739" transform="translate(48,7)"/>
<path d="M0 0 C3.45201639 1.47721422 5.64961936 3.43794001 8.25 6.125 C8.95640625 6.84945313 9.6628125 7.57390625 10.390625 8.3203125 C11.18726563 9.15175781 11.18726563 9.15175781 12 10 C12 7.22957891 10.8163115 6.41835044 9 4.375 C8.443125 3.74335938 7.88625 3.11171875 7.3125 2.4609375 C6.879375 1.97882812 6.44625 1.49671875 6 1 C9.40212299 2.61382757 12.10324519 4.58603766 15 7 C15 6.34 15 5.68 15 5 C17.49361571 6.20381448 19.68143083 7.45428722 22 9 C22.35441516 11.68416798 22.5159789 14.13221465 22.5390625 16.82421875 C22.55141937 17.60384476 22.56377625 18.38347076 22.57650757 19.1867218 C22.59609937 20.84014367 22.60731042 22.49368263 22.61083984 24.1472168 C22.62485795 26.66201754 22.69206274 29.17175516 22.76171875 31.68554688 C22.94464192 45.15263348 22.94464192 45.15263348 18.6484375 49.64453125 C16.09418844 51.67556796 15.35169921 52 12 52 C12.33 52.99 12.66 53.98 13 55 C12.5625 57.1875 12.5625 57.1875 12 59 C10.39592672 59.02708567 8.7917215 59.04643483 7.1875 59.0625 C5.84751953 59.07990234 5.84751953 59.07990234 4.48046875 59.09765625 C2 59 2 59 -1 58 C-1.33 57.34 -1.66 56.68 -2 56 C-2.33 56.99 -2.66 57.98 -3 59 C-3.66 59 -4.32 59 -5 59 C-5.12375 57.906875 -5.2475 56.81375 -5.375 55.6875 C-5.75464801 51.92618198 -5.75464801 51.92618198 -8 49 C-8.495 47.515 -8.495 47.515 -9 46 C-8.505 45.505 -8.505 45.505 -8 45 C-8.66 45 -9.32 45 -10 45 C-8.17093539 40.35614735 -4.4630431 37.38913422 -0.90039062 34.06640625 C2.68328554 30.63604293 2.68328554 30.63604293 4 26 C5.98 26 7.96 26 10 26 C9.34 24.35 8.68 22.7 8 21 C9.65 21 11.3 21 13 21 C13 20.01 13 19.02 13 18 C11.68 17.34 10.36 16.68 9 16 C9.33 14.68 9.66 13.36 10 12 C8.02 12.66 6.04 13.32 4 14 C4.37125 12.9171875 4.37125 12.9171875 4.75 11.8125 C5.32474852 8.85266182 5.32474852 8.85266182 3.125 6.4375 C2.42375 5.633125 1.7225 4.82875 1 4 C0.25 1.6875 0.25 1.6875 0 0 Z " fill="#30374A" transform="translate(76,17)"/>
<path d="M0 0 C13.86 0 27.72 0 42 0 C40 5 40 5 37.875 6.3125 C36.946875 6.6528125 36.946875 6.6528125 36 7 C35.01 6.34 34.02 5.68 33 5 C32.4121875 6.11375 32.4121875 6.11375 31.8125 7.25 C29.86961158 10.19783071 27.83531533 11.93098611 25 14 C25.391875 14.9075 25.78375 15.815 26.1875 16.75 C26.455625 17.8225 26.72375 18.895 27 20 C25.75 21.9375 25.75 21.9375 24 24 C23.26739841 26.31347872 22.588562 28.645752 22 31 C20 30 20 30 19 28 C19 28.99 19 29.98 19 31 C17.02 30.67 15.04 30.34 13 30 C13 31.32 13 32.64 13 34 C11.02 34.66 9.04 35.32 7 36 C7 36.99 7 37.98 7 39 C6.04060332 40.69036558 5.03357147 42.35394174 4 44 C2.9849911 45.99242489 1.98126556 47.99074195 1 50 C0.67 50 0.34 50 0 50 C0 33.5 0 17 0 0 Z " fill="#3D485C" transform="translate(0,0)"/>
<path d="M0 0 C0.66 0.99 1.32 1.98 2 3 C3.65 2.67 5.3 2.34 7 2 C6.34 3.98 5.68 5.96 5 8 C5.75796875 8.0928125 6.5159375 8.185625 7.296875 8.28125 C10.45918859 9.12209639 11.25869402 9.96561058 13.25 12.5 C16.64976655 16.66527689 20.36847303 20.33253299 24.27734375 24.01953125 C26 26 26 26 26 29 C26.33 29.33 26.66 29.66 27 30 C27.04080783 31.99958364 27.04254356 34.00045254 27 36 C25.02 36.495 25.02 36.495 23 37 C23 38.65 23 40.3 23 42 C27.29 42.33 31.58 42.66 36 43 C36.495 44.98 36.495 44.98 37 47 C36 48 36 48 33.78515625 48.09765625 C32.43744141 48.08025391 32.43744141 48.08025391 31.0625 48.0625 C30.16660156 48.05347656 29.27070312 48.04445312 28.34765625 48.03515625 C27.57292969 48.02355469 26.79820313 48.01195312 26 48 C25.34 48 24.68 48 24 48 C19.33333333 48 14.66666667 48 10 48 C9.505 45.525 9.505 45.525 9 43 C12.3 43 15.6 43 19 43 C17.48710036 41.48710036 15.98287633 40.79315053 14 40 C12.02 40.495 12.02 40.495 10 41 C9.505 36.05 9.505 36.05 9 31 C8.01 31 7.02 31 6 31 C6 31.99 6 32.98 6 34 C6.66 34 7.32 34 8 34 C8 34.66 8 35.32 8 36 C7.34 36 6.68 36 6 36 C6 36.99 6 37.98 6 39 C6.99 39 7.98 39 9 39 C9 39.66 9 40.32 9 41 C7.02 41 5.04 41 3 41 C2.8046875 38.94921875 2.609375 36.8984375 2.4140625 34.84765625 C2.20910156 33.93306641 2.20910156 33.93306641 2 33 C1.34 32.67 0.68 32.34 0 32 C-0.42152344 32.5053125 -0.84304687 33.010625 -1.27734375 33.53125 C-2.09912109 34.50578125 -2.09912109 34.50578125 -2.9375 35.5 C-3.75541016 36.47453125 -3.75541016 36.47453125 -4.58984375 37.46875 C-5.05519531 37.9740625 -5.52054687 38.479375 -6 39 C-6.33 39 -6.66 39 -7 39 C-7.08751413 35.12514365 -7.14056435 31.25054357 -7.1875 27.375 C-7.21263672 26.28058594 -7.23777344 25.18617187 -7.26367188 24.05859375 C-7.33605131 16.09685577 -6.06104894 11.26606059 -1 5 C-1.66 4.34 -2.32 3.68 -3 3 C-2.34 3 -1.68 3 -1 3 C-0.67 2.01 -0.34 1.02 0 0 Z " fill="#394963" transform="translate(7,35)"/>
<path d="M0 0 C1.32 1.65 2.64 3.3 4 5 C2.60974609 6.37285156 2.60974609 6.37285156 1.19140625 7.7734375 C-0.01836039 8.9738261 -1.22798865 10.17435417 -2.4375 11.375 C-3.04916016 11.97828125 -3.66082031 12.5815625 -4.29101562 13.203125 C-4.87431641 13.78320312 -5.45761719 14.36328125 -6.05859375 14.9609375 C-6.86768188 15.76217041 -6.86768188 15.76217041 -7.69311523 16.57958984 C-9.10846977 17.98652388 -9.10846977 17.98652388 -10 20 C-7.525 18.515 -7.525 18.515 -5 17 C-5.33 17.598125 -5.66 18.19625 -6 18.8125 C-7.20787988 21.05386471 -7.20787988 21.05386471 -7 24 C-6.34 23.34 -5.68 22.68 -5 22 C-5 25.96 -5 29.92 -5 34 C-4.34 34 -3.68 34 -3 34 C-3 32.35 -3 30.7 -3 29 C-2.34 30.32 -1.68 31.64 -1 33 C-0.34 33 0.32 33 1 33 C1.495 32.01 1.495 32.01 2 31 C2 31.99 2 32.98 2 34 C5.3 34 8.6 34 12 34 C11.896875 32.906875 11.79375 31.81375 11.6875 30.6875 C11.790625 29.470625 11.89375 28.25375 12 27 C14.1875 25.3125 14.1875 25.3125 17 24 C18.68477344 22.68962066 20.35648543 21.36176922 22 20 C22 22.97 22 25.94 22 29 C20.35 29.66 18.7 30.32 17 31 C16.67 33.64 16.34 36.28 16 39 C14.35 39.66 12.7 40.32 11 41 C11 39.68 11 38.36 11 37 C10.05125 37.020625 9.1025 37.04125 8.125 37.0625 C5 37 5 37 3 36 C2.505 36.99 2.505 36.99 2 38 C2 37.34 2 36.68 2 36 C1.34 36 0.68 36 0 36 C0.19471111 37.94999129 0.19471111 37.94999129 1 40 C2.9837767 41.28436734 2.9837767 41.28436734 5 42 C0.22907044 43.23402862 -4.42469446 43.11265112 -9.3125 43.0625 C-10.56643555 43.05573242 -10.56643555 43.05573242 -11.84570312 43.04882812 C-13.89716649 43.03710548 -15.94859273 43.01917203 -18 43 C-17.01 42.67 -16.02 42.34 -15 42 C-15 40.35 -15 38.7 -15 37 C-14.195625 37.7115625 -14.195625 37.7115625 -13.375 38.4375 C-10.57157164 40.28186076 -8.30379742 40.62456847 -5 41 C-5 39.68 -5 38.36 -5 37 C-9.29 36.67 -13.58 36.34 -18 36 C-18.495 36.99 -18.495 36.99 -19 38 C-19 37.34 -19 36.68 -19 36 C-19.66 36 -20.32 36 -21 36 C-21.66 37.65 -22.32 39.3 -23 41 C-23.33 41 -23.66 41 -24 41 C-24 39.35 -24 37.7 -24 36 C-24.66 36 -25.32 36 -26 36 C-26.33 36.99 -26.66 37.98 -27 39 C-27 38.01 -27 37.02 -27 36 C-28.70840281 37.63412443 -29.93453047 38.86906094 -31 41 C-29.515 40.505 -29.515 40.505 -28 40 C-27.01 40.66 -26.02 41.32 -25 42 C-28.11143567 43.03714522 -30.49468096 43.20031861 -33.76171875 43.31640625 C-34.87998047 43.35830078 -35.99824219 43.40019531 -37.15039062 43.44335938 C-38.31763672 43.48267578 -39.48488281 43.52199219 -40.6875 43.5625 C-41.86634766 43.60568359 -43.04519531 43.64886719 -44.25976562 43.69335938 C-47.17305883 43.79951176 -50.08643757 43.90156242 -53 44 C-53.495 42.515 -53.495 42.515 -54 41 C-51 40 -51 40 -47.9375 40.125 C-46.4834375 40.063125 -46.4834375 40.063125 -45 40 C-44.34 39.01 -43.68 38.02 -43 37 C-43 38.32 -43 39.64 -43 41 C-42.34 41 -41.68 41 -41 41 C-40.67 39.68 -40.34 38.36 -40 37 C-40 38.32 -40 39.64 -40 41 C-36.535 40.505 -36.535 40.505 -33 40 C-33 39.01 -33 38.02 -33 37 C-37.95 36.67 -42.9 36.34 -48 36 C-47.01 35.505 -47.01 35.505 -46 35 C-46 33.35 -46 31.7 -46 30 C-44.68 29.67 -43.36 29.34 -42 29 C-42.66 26.69 -43.32 24.38 -44 22 C-46.64 21.67 -49.28 21.34 -52 21 C-52 20.67 -52 20.34 -52 20 C-48.04 19.505 -48.04 19.505 -44 19 C-44.6815918 18.33411865 -44.6815918 18.33411865 -45.37695312 17.65478516 C-47.42313518 15.65005141 -49.4616229 13.63766784 -51.5 11.625 C-52.21542969 10.92632812 -52.93085937 10.22765625 -53.66796875 9.5078125 C-54.34472656 8.8375 -55.02148438 8.1671875 -55.71875 7.4765625 C-56.34716797 6.85861816 -56.97558594 6.24067383 -57.62304688 5.60400391 C-59 4 -59 4 -59 2 C-59.66 1.67 -60.32 1.34 -61 1 C-60.01 1 -59.02 1 -58 1 C-57.67 1.66 -57.34 2.32 -57 3 C-55.68 2.67 -54.36 2.34 -53 2 C-52.68289062 2.64066406 -52.36578125 3.28132813 -52.0390625 3.94140625 C-47.95679034 11.50826984 -42.90693478 16.66030825 -34.80078125 19.87109375 C-32.73492103 20.51102915 -32.73492103 20.51102915 -30 21 C-30 20.34 -30 19.68 -30 19 C-31.32 18.67 -32.64 18.34 -34 18 C-32.68 18 -31.36 18 -30 18 C-29.34 16.68 -28.68 15.36 -28 14 C-27.01 14 -26.02 14 -25 14 C-24.505 15.98 -24.505 15.98 -24 18 C-25.32 17.67 -26.64 17.34 -28 17 C-28.66 19.97 -29.32 22.94 -30 26 C-30.33 24.68 -30.66 23.36 -31 22 C-31.99 22 -32.98 22 -34 22 C-34.33 22.66 -34.66 23.32 -35 24 C-35 23.34 -35 22.68 -35 22 C-36.65 22.33 -38.3 22.66 -40 23 C-40 26.3 -40 29.6 -40 33 C-38.35 33 -36.7 33 -35 33 C-34.67 30.36 -34.34 27.72 -34 25 C-33.67 25 -33.34 25 -33 25 C-32.67 27.97 -32.34 30.94 -32 34 C-31.01 34 -30.02 34 -29 34 C-28.67 33.01 -28.34 32.02 -28 31 C-28 31.99 -28 32.98 -28 34 C-27.01 34 -26.02 34 -25 34 C-24.67 30.04 -24.34 26.08 -24 22 C-23.34 22 -22.68 22 -22 22 C-22 25.96 -22 29.92 -22 34 C-20.35 34 -18.7 34 -17 34 C-17 33.34 -17 32.68 -17 32 C-17.99 32 -18.98 32 -20 32 C-20 31.01 -20 30.02 -20 29 C-19.01 29 -18.02 29 -17 29 C-17 28.34 -17 27.68 -17 27 C-17.99 27 -18.98 27 -20 27 C-20 26.01 -20 25.02 -20 24 C-19.01 24 -18.02 24 -17 24 C-17 23.34 -17 22.68 -17 22 C-16.34 22 -15.68 22 -15 22 C-15 25.96 -15 29.92 -15 34 C-14.34 34 -13.68 34 -13 34 C-13 32.35 -13 30.7 -13 29 C-12.34 29 -11.68 29 -11 29 C-11 30.65 -11 32.3 -11 34 C-10.34 34 -9.68 34 -9 34 C-9.14037521 32.18706911 -9.28744889 30.3746557 -9.4375 28.5625 C-9.51871094 27.55316406 -9.59992188 26.54382813 -9.68359375 25.50390625 C-9.73211468 23.06359221 -9.73211468 23.06359221 -11 22 C-12.84891946 21.76636119 -14.70488031 21.58696365 -16.5625 21.4375 C-18.08037109 21.31181641 -18.08037109 21.31181641 -19.62890625 21.18359375 C-20.41136719 21.12300781 -21.19382813 21.06242187 -22 21 C-22 20.67 -22 20.34 -22 20 C-21.175 19.773125 -20.35 19.54625 -19.5 19.3125 C-10.51960723 15.94485271 -4.65059407 10.78311433 -0.625 2 C-0.41875 1.34 -0.2125 0.68 0 0 Z " fill="#222938" transform="translate(76,42)"/>
<path d="M0 0 C0 8.91 0 17.82 0 27 C-11.22 27 -22.44 27 -34 27 C-34 26.01 -34 25.02 -34 24 C-33.236875 23.9175 -32.47375 23.835 -31.6875 23.75 C-28.45284809 22.84730645 -27.64900735 21.86406539 -26 19 C-26 18.34 -26 17.68 -26 17 C-26.60134766 17.00523682 -27.20269531 17.01047363 -27.82226562 17.01586914 C-43.24472347 17.13098386 -58.59701344 16.77592751 -74 16 C-74 15.34 -74 14.68 -74 14 C-66.08 13.67 -58.16 13.34 -50 13 C-50.99 12.67 -51.98 12.34 -53 12 C-52.34 10.35 -51.68 8.7 -51 7 C-49.35 7 -47.7 7 -46 7 C-45.67 8.32 -45.34 9.64 -45 11 C-44.34 9.68 -43.68 8.36 -43 7 C-36.4 7 -29.8 7 -23 7 C-23.33 8.65 -23.66 10.3 -24 12 C-24.495 10.02 -24.495 10.02 -25 8 C-25.66 8 -26.32 8 -27 8 C-27 9.32 -27 10.64 -27 12 C-33.15234375 12.09765625 -33.15234375 12.09765625 -35 12 C-35.495 11.505 -35.495 11.505 -36 11 C-36.33 11.66 -36.66 12.32 -37 13 C-32.05 13 -27.1 13 -22 13 C-22.495 12.505 -22.495 12.505 -23 12 C-22.67 10.35 -22.34 8.7 -22 7 C-18.04 7 -14.08 7 -10 7 C-9.505 8.98 -9.505 8.98 -9 11 C-8.34 10.67 -7.68 10.34 -7 10 C-6.814375 8.0509375 -6.814375 8.0509375 -6.625 6.0625 C-6.41015625 3.87890625 -6.41015625 3.87890625 -6 2 C-3.81734379 0.31020164 -2.72785349 0 0 0 Z " fill="#232B40" transform="translate(98,71)"/>
<path d="M0 0 C8.21872158 0.80657505 14.91978471 2.12864707 21 8 C28.54948983 17.53472604 28.54948983 17.53472604 28 24 C28.66 22.68 29.32 21.36 30 20 C30.66 20 31.32 20 32 20 C32 21.32 32 22.64 32 24 C33.65 23.34 35.3 22.68 37 22 C36.505 23.485 36.505 23.485 36 25 C34.04175306 25.16767864 32.08339945 25.33411205 30.125 25.5 C29.03445312 25.5928125 27.94390625 25.685625 26.8203125 25.78125 C25.21670436 25.90562958 23.60842449 26 22 26 C22.66 26.66 23.32 27.32 24 28 C26.10820797 27.6814823 26.10820797 27.6814823 28 27 C28 28.32 28 29.64 28 31 C26.68 31 25.36 31 24 31 C24 32.32 24 33.64 24 35 C20.62537285 34.45276317 18.91765 33.9451 16 32 C15.5 28.625 15.5 28.625 16 25 C18.375 22.5625 18.375 22.5625 21 21 C21.66 21 22.32 21 23 21 C22.34 19.68 21.68 18.36 21 17 C20.67 18.32 20.34 19.64 20 21 C19.01 21 18.02 21 17 21 C16.34 21.66 15.68 22.32 15 23 C14.34 22.34 13.68 21.68 13 21 C13.33 21.99 13.66 22.98 14 24 C13.5625 26.1875 13.5625 26.1875 13 28 C11 25 11 25 11 21 C8.03 20.34 5.06 19.68 2 19 C2 24.28 2 29.56 2 35 C2.66 35 3.32 35 4 35 C4 35.66 4 36.32 4 37 C1.03 37 -1.94 37 -5 37 C-4.67 36.01 -4.34 35.02 -4 34 C-2.515 33.505 -2.515 33.505 -1 33 C-1 28.71 -1 24.42 -1 20 C-2.98 20 -4.96 20 -7 20 C-7 20.66 -7 21.32 -7 22 C-7.66 22 -8.32 22 -9 22 C-8.375 20.0625 -8.375 20.0625 -7 18 C-3.875 17.25 -3.875 17.25 -1 17 C-1.33 16.34 -1.66 15.68 -2 15 C-2.99 15.33 -3.98 15.66 -5 16 C-5 15.34 -5 14.68 -5 14 C-5.66 14 -6.32 14 -7 14 C-7.33 13.01 -7.66 12.02 -8 11 C-8.99 10.34 -9.98 9.68 -11 9 C-11 8.01 -11 7.02 -11 6 C-7.62902617 4.50178941 -5.79557881 4 -2 4 C-1.34 2.68 -0.68 1.36 0 0 Z " fill="#A1B7B1" transform="translate(48,7)"/>
<path d="M0 0 C1.670625 0.061875 1.670625 0.061875 3.375 0.125 C2.715 0.785 2.055 1.445 1.375 2.125 C2.365 2.785 3.355 3.445 4.375 4.125 C4.375 5.115 4.375 6.105 4.375 7.125 C6.85 7.62 6.85 7.62 9.375 8.125 C9.705 7.465 10.035 6.805 10.375 6.125 C10.375 7.445 10.375 8.765 10.375 10.125 C9.240625 10.57875 8.10625 11.0325 6.9375 11.5 C3.32778308 12.69595806 3.32778308 12.69595806 2.375 15.125 C3.035 15.125 3.695 15.125 4.375 15.125 C4.375 14.465 4.375 13.805 4.375 13.125 C6.3664056 12.74366701 8.36779077 12.41174418 10.375 12.125 C11.375 13.125 11.375 13.125 11.47265625 16.06640625 C11.46105469 17.26136719 11.44945313 18.45632812 11.4375 19.6875 C11.42847656 20.88503906 11.41945313 22.08257812 11.41015625 23.31640625 C11.39855469 24.24324219 11.38695313 25.17007813 11.375 26.125 C10.75109375 26.42148437 10.1271875 26.71796875 9.484375 27.0234375 C7.33702908 28.14482926 5.99404165 29.34405418 4.375 31.125 C4.045 29.805 3.715 28.485 3.375 27.125 C2.055 27.125 0.735 27.125 -0.625 27.125 C-0.955 25.805 -1.285 24.485 -1.625 23.125 C-2.285 23.125 -2.945 23.125 -3.625 23.125 C-3.955 22.135 -4.285 21.145 -4.625 20.125 C-6.64008358 19.39176204 -6.64008358 19.39176204 -8.625 19.125 C-9.285 20.445 -9.945 21.765 -10.625 23.125 C-10.955 22.465 -11.285 21.805 -11.625 21.125 C-13.64169827 19.99149466 -13.64169827 19.99149466 -15.625 19.125 C-14.965 19.125 -14.305 19.125 -13.625 19.125 C-13.295 17.145 -12.965 15.165 -12.625 13.125 C-11.5 16.875 -11.5 16.875 -12.625 19.125 C-11.965 19.125 -11.305 19.125 -10.625 19.125 C-10.35567479 14.47447128 -10.35567479 14.47447128 -11.625 10.125 C-10.66867001 8.83184939 -9.70986149 7.54053147 -8.75 6.25 C-8.21632813 5.53070312 -7.68265625 4.81140625 -7.1328125 4.0703125 C-4.08715139 0.14093625 -4.08715139 0.14093625 0 0 Z " fill="#97A39A" transform="translate(36.625,13.875)"/>
<path d="M0 0 C15.84 0 31.68 0 48 0 C48.495 1.98 48.495 1.98 49 4 C44.60546875 8.00390625 44.60546875 8.00390625 43 9 C42.01 8.67 41.02 8.34 40 8 C40 8.99 40 9.98 40 11 C35.64015539 11.12363227 31.28123945 11.21434908 26.92016602 11.2746582 C25.43691232 11.2997981 23.95378247 11.33391592 22.47094727 11.37719727 C20.33839405 11.43788258 18.20747795 11.46621116 16.07421875 11.48828125 C14.14968872 11.52755737 14.14968872 11.52755737 12.1862793 11.56762695 C9 11 9 11 7.11645508 8.60620117 C6.7480249 7.74615479 6.37959473 6.8861084 6 6 C4.34246362 2.1324151 4.18418427 2.09209213 0 0 Z " fill="#252B3E" transform="translate(24,87)"/>
<path d="M0 0 C6.27 0 12.54 0 19 0 C19 1.98 19 3.96 19 6 C18.34 6 17.68 6 17 6 C17.99 7.65 18.98 9.3 20 11 C17.66666667 11 15.33333333 11 13 11 C12.34 11.66 11.68 12.32 11 13 C11.99 14.32 12.98 15.64 14 17 C12.35 18.65 10.7 20.3 9 22 C9.99 22.66 10.98 23.32 12 24 C12.66 23.67 13.32 23.34 14 23 C13.01 25.97 12.02 28.94 11 32 C10.01 32 9.02 32 8 32 C7.34 31.34 6.68 30.68 6 30 C6.165 29.401875 6.33 28.80375 6.5 28.1875 C7.16994268 25.25650076 6.25714314 23.66218548 5 21 C4.8509288 23.0745356 4.8509288 23.0745356 6 25 C4.52830189 28.73584906 4.52830189 28.73584906 2 30 C2.33 31.32 2.66 32.64 3 34 C2.01 34.66 1.02 35.32 0 36 C0 24.12 0 12.24 0 0 Z M6 13 C5.34 14.65 4.68 16.3 4 18 C4.99 18 5.98 18 7 18 C7.66 16.68 8.32 15.36 9 14 C8.01 13.67 7.02 13.34 6 13 Z " fill="#404D63" transform="translate(0,0)"/>
<path d="M0 0 C3.92878186 0.53976508 5.63519172 2.29668418 8.25 5.1875 C8.95640625 5.94417969 9.6628125 6.70085938 10.390625 7.48046875 C12.34512198 10.54030019 12.30945792 12.43607632 12 16 C10.68 16.33 9.36 16.66 8 17 C8 18.65 8 20.3 8 22 C12.29 22.33 16.58 22.66 21 23 C21.495 24.98 21.495 24.98 22 27 C21 28 21 28 18.78515625 28.09765625 C17.43744141 28.08025391 17.43744141 28.08025391 16.0625 28.0625 C15.16660156 28.05347656 14.27070312 28.04445313 13.34765625 28.03515625 C12.57292969 28.02355469 11.79820313 28.01195313 11 28 C10.34 28 9.68 28 9 28 C4.33333333 28 -0.33333333 28 -5 28 C-5.33 26.35 -5.66 24.7 -6 23 C-2.7 23 0.6 23 4 23 C2.48710036 21.48710036 0.98287633 20.79315053 -1 20 C-2.32 20.33 -3.64 20.66 -5 21 C-5.33 16.71 -5.66 12.42 -6 8 C-7.65 8 -9.3 8 -11 8 C-11 7.67 -11 7.34 -11 7 C-10.37351562 6.97421875 -9.74703125 6.9484375 -9.1015625 6.921875 C-8.28429687 6.86515625 -7.46703125 6.8084375 -6.625 6.75 C-5.81289063 6.70359375 -5.00078125 6.6571875 -4.1640625 6.609375 C-1.83746966 6.20664659 -1.83746966 6.20664659 -0.7109375 4.078125 C0.10789589 2.05067346 0.10789589 2.05067346 0 0 Z " fill="#262C3E" transform="translate(22,55)"/>
<path d="M0 0 C0.99 0 1.98 0 3 0 C3.33 0.66 3.66 1.32 4 2 C5.32 1.67 6.64 1.34 8 1 C8.31710938 1.64066406 8.63421875 2.28132813 8.9609375 2.94140625 C13.04320966 10.50826984 18.09306522 15.66030825 26.19921875 18.87109375 C28.26507897 19.51102915 28.26507897 19.51102915 31 20 C31 19.34 31 18.68 31 18 C29.68 17.67 28.36 17.34 27 17 C28.32 17 29.64 17 31 17 C31.66 15.68 32.32 14.36 33 13 C33.99 13 34.98 13 36 13 C36.495 14.98 36.495 14.98 37 17 C35.68 16.67 34.36 16.34 33 16 C32.34 18.97 31.68 21.94 31 25 C30.67 23.68 30.34 22.36 30 21 C29.01 21 28.02 21 27 21 C26.67 21.66 26.34 22.32 26 23 C26 22.34 26 21.68 26 21 C24.35 21.33 22.7 21.66 21 22 C21 25.3 21 28.6 21 32 C22.65 32 24.3 32 26 32 C26.33 29.36 26.66 26.72 27 24 C27.33 24 27.66 24 28 24 C28.33 26.97 28.66 29.94 29 33 C29.99 33 30.98 33 32 33 C32.33 32.01 32.66 31.02 33 30 C33 30.99 33 31.98 33 33 C33.99 33 34.98 33 36 33 C36.33 30.03 36.66 27.06 37 24 C37.33 24 37.66 24 38 24 C38 27.3 38 30.6 38 34 C39.98 34 41.96 34 44 34 C43.34 34.99 42.68 35.98 42 37 C42 36.34 42 35.68 42 35 C41.34 35 40.68 35 40 35 C39.34 36.65 38.68 38.3 38 40 C37.67 40 37.34 40 37 40 C37 38.35 37 36.7 37 35 C36.34 35 35.68 35 35 35 C34.67 35.99 34.34 36.98 34 38 C34 37.01 34 36.02 34 35 C32.29159719 36.63412443 31.06546953 37.86906094 30 40 C31.485 39.505 31.485 39.505 33 39 C33.99 39.66 34.98 40.32 36 41 C32.88856433 42.03714522 30.50531904 42.20031861 27.23828125 42.31640625 C26.12001953 42.35830078 25.00175781 42.40019531 23.84960938 42.44335938 C22.68236328 42.48267578 21.51511719 42.52199219 20.3125 42.5625 C19.13365234 42.60568359 17.95480469 42.64886719 16.74023438 42.69335938 C13.82694117 42.79951176 10.91356243 42.90156242 8 43 C7.505 41.515 7.505 41.515 7 40 C10 39 10 39 13.0625 39.125 C14.5165625 39.063125 14.5165625 39.063125 16 39 C16.66 38.01 17.32 37.02 18 36 C18 37.32 18 38.64 18 40 C18.66 40 19.32 40 20 40 C20.33 38.68 20.66 37.36 21 36 C21 37.32 21 38.64 21 40 C24.465 39.505 24.465 39.505 28 39 C28 38.01 28 37.02 28 36 C23.05 35.67 18.1 35.34 13 35 C13.99 34.505 13.99 34.505 15 34 C15 32.35 15 30.7 15 29 C16.32 28.67 17.64 28.34 19 28 C18.34 25.69 17.68 23.38 17 21 C14.36 20.67 11.72 20.34 9 20 C9 19.67 9 19.34 9 19 C12.96 18.505 12.96 18.505 17 18 C16.3184082 17.33411865 16.3184082 17.33411865 15.62304688 16.65478516 C13.57686482 14.65005141 11.5383771 12.63766784 9.5 10.625 C8.78457031 9.92632812 8.06914062 9.22765625 7.33203125 8.5078125 C6.65527344 7.8375 5.97851562 7.1671875 5.28125 6.4765625 C4.65283203 5.85861816 4.02441406 5.24067383 3.37695312 4.60400391 C2 3 2 3 2 1 C1.34 0.67 0.68 0.34 0 0 Z " fill="#1E212C" transform="translate(15,43)"/>
<path d="M0 0 C7.625 0.875 7.625 0.875 11 2 C9.35 2.66 7.7 3.32 6 4 C6.77085938 4.04898438 7.54171875 4.09796875 8.3359375 4.1484375 C9.33882812 4.22320312 10.34171875 4.29796875 11.375 4.375 C12.87160156 4.47941406 12.87160156 4.47941406 14.3984375 4.5859375 C17 5 17 5 19 7 C19.1953125 9.6015625 19.1953125 9.6015625 19.125 12.625 C19.10695312 13.62789062 19.08890625 14.63078125 19.0703125 15.6640625 C19.04710937 16.43492188 19.02390625 17.20578125 19 18 C18.34 18 17.68 18 17 18 C17 16.35 17 14.7 17 13 C16.34 13 15.68 13 15 13 C15 14.65 15 16.3 15 18 C14.34 18 13.68 18 13 18 C13 14.04 13 10.08 13 6 C12.34 6 11.68 6 11 6 C11 6.66 11 7.32 11 8 C10.01 8 9.02 8 8 8 C8 8.99 8 9.98 8 11 C8.99 11 9.98 11 11 11 C11 11.66 11 12.32 11 13 C10.01 13 9.02 13 8 13 C8 13.99 8 14.98 8 16 C8.99 16 9.98 16 11 16 C11 16.66 11 17.32 11 18 C9.35 18 7.7 18 6 18 C6 14.04 6 10.08 6 6 C5.34 6 4.68 6 4 6 C4.020625 7.2375 4.04125 8.475 4.0625 9.75 C4.06766681 12.6640825 3.93015558 15.20953327 3 18 C0.69 18 -1.62 18 -4 18 C-4.33 16.68 -4.66 15.36 -5 14 C-5.66 15.32 -6.32 16.64 -7 18 C-8.66611905 18.042721 -10.33382885 18.04063832 -12 18 C-13 17 -13 17 -13.1328125 14.75 C-13.13023438 13.8425 -13.12765625 12.935 -13.125 12 C-13.12757812 11.0925 -13.13015625 10.185 -13.1328125 9.25 C-13 7 -13 7 -12 6 C-10.31391034 5.92794489 -8.62499341 5.91613932 -6.9375 5.9375 C-6.01839844 5.94652344 -5.09929688 5.95554687 -4.15234375 5.96484375 C-3.44207031 5.97644531 -2.73179688 5.98804688 -2 6 C-1.34 4.02 -0.68 2.04 0 0 Z " fill="#DCDEDE" transform="translate(48,58)"/>
<path d="M0 0 C0.33 0 0.66 0 1 0 C2.06174484 8.37598706 2.06174484 8.37598706 -0.453125 12.22265625 C-2.23017802 14.04077562 -3.86424298 15.61884664 -6 17 C-6.99 17 -7.98 17 -9 17 C-8.67 17.99 -8.34 18.98 -8 20 C-8.4375 22.1875 -8.4375 22.1875 -9 24 C-10.60407328 24.02708567 -12.2082785 24.04643483 -13.8125 24.0625 C-15.15248047 24.07990234 -15.15248047 24.07990234 -16.51953125 24.09765625 C-19 24 -19 24 -22 23 C-22.33 22.34 -22.66 21.68 -23 21 C-23.33 21.99 -23.66 22.98 -24 24 C-24.66 24 -25.32 24 -26 24 C-26 19.38 -26 14.76 -26 10 C-24.35 9.67 -22.7 9.34 -21 9 C-20.67 9.33 -20.34 9.66 -20 10 C-19.2575 9.835 -18.515 9.67 -17.75 9.5 C-14.81393569 8.96617012 -12.86411267 9.26351388 -10 10 C-10 9.34 -10 8.68 -10 8 C-7.36107824 6.21694476 -5.02821137 5.00940379 -2 4 C-0.79117904 1.99983534 -0.79117904 1.99983534 0 0 Z " fill="#363D4F" transform="translate(97,52)"/>
<path d="M0 0 C0.33 1.32 0.66 2.64 1 4 C1.66 4 2.32 4 3 4 C3.33 3.01 3.66 2.02 4 1 C4 1.99 4 2.98 4 4 C4.66 3.67 5.32 3.34 6 3 C8.3329866 2.95977609 10.66706666 2.95679753 13 3 C13.33 2.01 13.66 1.02 14 0 C14.0825 0.61875 14.165 1.2375 14.25 1.875 C14.81258459 4.18437567 14.81258459 4.18437567 17.0625 5.25 C17.701875 5.4975 18.34125 5.745 19 6 C18.67 7.32 18.34 8.64 18 10 C16.68 10 15.36 10 14 10 C14.495 11.98 14.495 11.98 15 14 C13.02 14 11.04 14 9 14 C9 14.99 9 15.98 9 17 C7.68 16.34 6.36 15.68 5 15 C4.505 16.175625 4.01 17.35125 3.5 18.5625 C0.36962047 24.84553934 -5.59020154 30.13245858 -12 33 C-15.3125 33.1875 -15.3125 33.1875 -18 33 C-17.01 32.34 -16.02 31.68 -15 31 C-16.32 31 -17.64 31 -19 31 C-19 30.34 -19 29.68 -19 29 C-18.14728516 28.77957031 -18.14728516 28.77957031 -17.27734375 28.5546875 C-11.50762732 26.87867638 -6.72137653 24.88065351 -3 20 C-1.78972807 17.12660604 -0.8431654 14.29943625 -0.01953125 11.29296875 C1 9 1 9 3.11328125 8.17578125 C3.73589844 8.11777344 4.35851562 8.05976562 5 8 C5 7.34 5 6.68 5 6 C4.01 6 3.02 6 2 6 C1.34 6.66 0.68 7.32 0 8 C-0.28875 7.38125 -0.5775 6.7625 -0.875 6.125 C-1.93720042 3.86674235 -1.93720042 3.86674235 -4 2 C-3.01 2 -2.02 2 -1 2 C-0.67 1.34 -0.34 0.68 0 0 Z " fill="#937E57" transform="translate(71,29)"/>
<path d="M0 0 C4.62319469 0.96690815 6.30353723 2.68651402 8.953125 6.46875 C9.43652344 7.20996094 9.91992188 7.95117188 10.41796875 8.71484375 C11.54517517 10.06396105 12.68999731 11.39864159 13.85546875 12.71484375 C15.12390625 14.19984375 15.12390625 14.19984375 16.41796875 15.71484375 C14.41798065 14.72818295 12.43874552 13.72636771 10.48828125 12.64453125 C6.28716679 10.36681859 3.32391157 9.22424947 -1.58203125 9.71484375 C-1.58203125 9.05484375 -1.58203125 8.39484375 -1.58203125 7.71484375 C-2.57203125 8.04484375 -3.56203125 8.37484375 -4.58203125 8.71484375 C-4.82953125 9.37484375 -5.07703125 10.03484375 -5.33203125 10.71484375 C-5.74453125 11.37484375 -6.15703125 12.03484375 -6.58203125 12.71484375 C-9.95703125 13.40234375 -9.95703125 13.40234375 -13.58203125 13.71484375 C-14.92120386 14.02388358 -16.25856379 14.34427286 -17.58203125 14.71484375 C-14.92217515 11.27267703 -11.67914839 10.71979701 -7.58203125 9.71484375 C-15.49396399 10.48673963 -20.81600167 14.65198851 -26.58203125 19.71484375 C-27.24203125 17.73484375 -27.90203125 15.75484375 -28.58203125 13.71484375 C-28.09992187 13.4003125 -27.6178125 13.08578125 -27.12109375 12.76171875 C-22.32831773 9.62095627 -22.32831773 9.62095627 -19.58203125 4.71484375 C-17.10703125 5.70484375 -17.10703125 5.70484375 -14.58203125 6.71484375 C-14.21078125 5.72484375 -13.83953125 4.73484375 -13.45703125 3.71484375 C-10.35980034 -0.95895596 -5.0686718 -0.2153529 0 0 Z " fill="#373C4A" transform="translate(52.58203125,-0.71484375)"/>
<path d="M0 0 C0.99 0.33 1.98 0.66 3 1 C2.34 2.32 1.68 3.64 1 5 C0.01 5 -0.98 5 -2 5 C-1.34 3.35 -0.68 1.7 0 0 Z M8 3 C10.15377564 5.62198774 11.40072174 7.64404172 12 11 C12.78375 10.34 13.5675 9.68 14.375 9 C17 7 17 7 19 7 C18.01 10.63 17.02 14.26 16 18 C14 17 14 17 13 15 C13 15.99 13 16.98 13 18 C10.03 17.505 10.03 17.505 7 17 C7 18.32 7 19.64 7 21 C5.02 21.66 3.04 22.32 1 23 C1 23.99 1 24.98 1 26 C0.04060332 27.69036558 -0.96642853 29.35394174 -2 31 C-3.0150089 32.99242489 -4.01873444 34.99074195 -5 37 C-5.33 37 -5.66 37 -6 37 C-6.054138 34.75026553 -6.09285491 32.50015617 -6.125 30.25 C-6.14820313 28.99703125 -6.17140625 27.7440625 -6.1953125 26.453125 C-6.00987337 23.17456126 -5.49609922 21.79104225 -4 19 C-4.33 18.01 -4.66 17.02 -5 16 C-4.01 15.67 -3.02 15.34 -2 15 C-1.06608997 13.18343185 -1.06608997 13.18343185 -1 11 C-1.85790183 8.78228936 -1.85790183 8.78228936 -3 7 C-2.34 6.67 -1.68 6.34 -1 6 C2.07692308 12.4 2.07692308 12.4 1.6875 15.4375 C1.460625 15.953125 1.23375 16.46875 1 17 C1.99 17.66 2.98 18.32 4 19 C5.37553494 15.57330419 5.37553494 15.57330419 6 12 C4.68662604 10.9739266 3.35335895 9.97272675 2 9 C3.98 7.02 5.96 5.04 8 3 Z " fill="#38465E" transform="translate(6,13)"/>
<path d="M0 0 C-1 2 -1 2 -2.8203125 2.640625 C-3.58085938 2.84171875 -4.34140625 3.0428125 -5.125 3.25 C-11.47371166 5.26177328 -15.47327264 8.56677827 -19 14.1875 C-20.3338883 17.02462262 -20.3338883 17.02462262 -19 20 C-19.4375 22.6875 -19.4375 22.6875 -20 25 C-20.66 25 -21.32 25 -22 25 C-22 23.68 -22 22.36 -22 21 C-22.33 22.32 -22.66 23.64 -23 25 C-22.01 25.66 -21.02 26.32 -20 27 C-20.33 27.99 -20.66 28.98 -21 30 C-22.32 29.67 -23.64 29.34 -25 29 C-25.33 29.66 -25.66 30.32 -26 31 C-25.01 31 -24.02 31 -23 31 C-22.32694982 32.60149886 -21.66177773 34.20631029 -21 35.8125 C-20.62875 36.70582031 -20.2575 37.59914062 -19.875 38.51953125 C-19 41 -19 41 -19 44 C-19.47179688 43.24203125 -19.47179688 43.24203125 -19.953125 42.46875 C-20.38109375 41.8190625 -20.8090625 41.169375 -21.25 40.5 C-21.66765625 39.8503125 -22.0853125 39.200625 -22.515625 38.53125 C-23.00546875 38.0259375 -23.4953125 37.520625 -24 37 C-25.32 37 -26.64 37 -28 37 C-28 36.34 -28 35.68 -28 35 C-29.98 35 -31.96 35 -34 35 C-33.67 33.35 -33.34 31.7 -33 30 C-34.32 30.33 -35.64 30.66 -37 31 C-37.33 29.68 -37.66 28.36 -38 27 C-36.35 26.67 -34.7 26.34 -33 26 C-33.33 24.68 -33.66 23.36 -34 22 C-32 22 -30 22 -28 22 C-27.67 21.01 -27.34 20.02 -27 19 C-26.34 19.33 -25.68 19.66 -25 20 C-24.67 20.99 -24.34 21.98 -24 23 C-23.9690625 21.5459375 -23.9690625 21.5459375 -23.9375 20.0625 C-23.00551296 13.49864841 -17.68308432 8.2961119 -12.875 4.0625 C-8.52495894 0.94181837 -5.36556244 -0.30660357 0 0 Z " fill="#BFAF85" transform="translate(46,8)"/>
<path d="M0 0 C1.65 0 3.3 0 5 0 C5.33 1.32 5.66 2.64 6 4 C6.66 2.68 7.32 1.36 8 0 C14.6 0 21.2 0 28 0 C27.67 1.65 27.34 3.3 27 5 C26.505 3.02 26.505 3.02 26 1 C25.34 1 24.68 1 24 1 C24 2.32 24 3.64 24 5 C17.84765625 5.09765625 17.84765625 5.09765625 16 5 C15.505 4.505 15.505 4.505 15 4 C14.67 4.66 14.34 5.32 14 6 C18.29 6.33 22.58 6.66 27 7 C27 7.66 27 8.32 27 9 C10.25279596 9.89891881 -6.2565914 10.00679618 -23 9 C-23 8.34 -23 7.68 -23 7 C-15.08 6.67 -7.16 6.34 1 6 C0.01 5.67 -0.98 5.34 -2 5 C-1.34 3.35 -0.68 1.7 0 0 Z " fill="#7E6851" transform="translate(47,78)"/>
<path d="M0 0 C3.43752007 1.5277867 6.18953688 3.50181056 9 6 C9 6.66 9 7.32 9 8 C8.01 8 7.02 8 6 8 C6 7.34 6 6.68 6 6 C5.34 6 4.68 6 4 6 C4.33 7.65 4.66 9.3 5 11 C3.68 11.33 2.36 11.66 1 12 C0.67 11.01 0.34 10.02 0 9 C-0.66 9 -1.32 9 -2 9 C-2 10.98 -2 12.96 -2 15 C-2.99 14.67 -3.98 14.34 -5 14 C-4.67 13.01 -4.34 12.02 -4 11 C-4.66 11 -5.32 11 -6 11 C-6.33 12.32 -6.66 13.64 -7 15 C-8.32 15 -9.64 15 -11 15 C-11 13.68 -11 12.36 -11 11 C-11.66 11 -12.32 11 -13 11 C-13 12.32 -13 13.64 -13 15 C-13.99 15 -14.98 15 -16 15 C-16 12.03 -16 9.06 -16 6 C-15.34 6 -14.68 6 -14 6 C-14 5.34 -14 4.68 -14 4 C-12.37536158 3.94604522 -10.75021459 3.90722805 -9.125 3.875 C-8.22007813 3.85179687 -7.31515625 3.82859375 -6.3828125 3.8046875 C-4 4 -4 4 -2 6 C-1.01 5.34 -0.02 4.68 1 4 C0.34 4 -0.32 4 -1 4 C-0.67 3.34 -0.34 2.68 0 2 C0 1.34 0 0.68 0 0 Z " fill="#917C4E" transform="translate(58,41)"/>
<path d="M0 0 C0.66 0 1.32 0 2 0 C2.75 1.6875 2.75 1.6875 3 4 C1.0625 6.75 1.0625 6.75 -1 9 C0.65 9 2.3 9 4 9 C4 9.99 4 10.98 4 12 C3.01 12 2.02 12 1 12 C1 12.99 1 13.98 1 15 C1.66 15 2.32 15 3 15 C3 15.66 3 16.32 3 17 C2.34 17 1.68 17 1 17 C1 17.99 1 18.98 1 20 C1.99 20 2.98 20 4 20 C4 20.66 4 21.32 4 22 C2.02 22 0.04 22 -2 22 C-2.1953125 19.94921875 -2.390625 17.8984375 -2.5859375 15.84765625 C-2.79089844 14.93306641 -2.79089844 14.93306641 -3 14 C-3.66 13.67 -4.32 13.34 -5 13 C-5.63228516 13.75796875 -5.63228516 13.75796875 -6.27734375 14.53125 C-6.82519531 15.1809375 -7.37304688 15.830625 -7.9375 16.5 C-8.48277344 17.1496875 -9.02804688 17.799375 -9.58984375 18.46875 C-10.05519531 18.9740625 -10.52054688 19.479375 -11 20 C-11.33 20 -11.66 20 -12 20 C-12.17726741 14.85924503 -12.16371219 10.78294274 -10 6 C-7 4 -7 4 -4 4 C-2.64631404 2.68733482 -1.31200404 1.35432675 0 0 Z " fill="#354055" transform="translate(12,54)"/>
<path d="M0 0 C0.66 0.66 1.32 1.32 2 2 C3.32 2 4.64 2 6 2 C6.15855469 2.62648437 6.31710938 3.25296875 6.48046875 3.8984375 C7.7905977 9.15624686 7.7905977 9.15624686 11.6875 12.5625 C12.450625 12.706875 13.21375 12.85125 14 13 C14 14.32 14 15.64 14 17 C14.66 16.01 15.32 15.02 16 14 C16 15.32 16 16.64 16 18 C16.99 18.33 17.98 18.66 19 19 C18.67 19.33 18.34 19.66 18 20 C20.64 20.99 23.28 21.98 26 23 C26 24.65 26 26.3 26 28 C18.96194298 27.84699876 14.30583599 24.44254641 9 20 C7.19811941 17.29717912 6.14644569 15.00941993 5 12 C4.62875 11.13375 4.2575 10.2675 3.875 9.375 C3 7 3 7 3 4 C2.01 4 1.02 4 0 4 C0 2.68 0 1.36 0 0 Z " fill="#70634A" transform="translate(20,35)"/>
<path d="M0 0 C0.99 0 1.98 0 3 0 C3.33 0.66 3.66 1.32 4 2 C5.32 1.67 6.64 1.34 8 1 C8.31710938 1.64066406 8.63421875 2.28132813 8.9609375 2.94140625 C13.04320966 10.50826984 18.09306522 15.66030825 26.19921875 18.87109375 C28.26507897 19.51102915 28.26507897 19.51102915 31 20 C31 19.34 31 18.68 31 18 C29.68 17.67 28.36 17.34 27 17 C28.32 17 29.64 17 31 17 C31.66 15.68 32.32 14.36 33 13 C33.99 13 34.98 13 36 13 C36.495 14.98 36.495 14.98 37 17 C35.68 16.67 34.36 16.34 33 16 C32.34 18.97 31.68 21.94 31 25 C30.67 23.68 30.34 22.36 30 21 C29.01 21 28.02 21 27 21 C26.67 21.66 26.34 22.32 26 23 C26 22.34 26 21.68 26 21 C24.35 21.33 22.7 21.66 21 22 C20.67 25.3 20.34 28.6 20 32 C18.68 31.34 17.36 30.68 16 30 C15.67 31.32 15.34 32.64 15 34 C15 32.35 15 30.7 15 29 C16.32 28.67 17.64 28.34 19 28 C18.34 25.69 17.68 23.38 17 21 C14.36 20.67 11.72 20.34 9 20 C9 19.67 9 19.34 9 19 C12.96 18.505 12.96 18.505 17 18 C16.3184082 17.33411865 16.3184082 17.33411865 15.62304688 16.65478516 C13.57686482 14.65005141 11.5383771 12.63766784 9.5 10.625 C8.78457031 9.92632812 8.06914062 9.22765625 7.33203125 8.5078125 C6.65527344 7.8375 5.97851562 7.1671875 5.28125 6.4765625 C4.65283203 5.85861816 4.02441406 5.24067383 3.37695312 4.60400391 C2 3 2 3 2 1 C1.34 0.67 0.68 0.34 0 0 Z " fill="#131525" transform="translate(15,43)"/>
<path d="M0 0 C3.90532683 0.37793485 7.2815754 0.76052513 11 2 C9.35 2.66 7.7 3.32 6 4 C6.77085938 4.04898438 7.54171875 4.09796875 8.3359375 4.1484375 C9.33882812 4.22320312 10.34171875 4.29796875 11.375 4.375 C12.87160156 4.47941406 12.87160156 4.47941406 14.3984375 4.5859375 C17 5 17 5 19 7 C19.1953125 9.6015625 19.1953125 9.6015625 19.125 12.625 C19.10695313 13.62789062 19.08890625 14.63078125 19.0703125 15.6640625 C19.04710938 16.43492188 19.02390625 17.20578125 19 18 C18.34 18 17.68 18 17 18 C17 16.35 17 14.7 17 13 C16.34 13 15.68 13 15 13 C15 14.65 15 16.3 15 18 C14.34 18 13.68 18 13 18 C13 14.04 13 10.08 13 6 C12.34 6 11.68 6 11 6 C11 6.66 11 7.32 11 8 C10.01 8 9.02 8 8 8 C8 8.99 8 9.98 8 11 C8.99 11 9.98 11 11 11 C11 11.66 11 12.32 11 13 C10.01 13 9.02 13 8 13 C8 13.99 8 14.98 8 16 C8.99 16 9.98 16 11 16 C11 16.66 11 17.32 11 18 C9.35 18 7.7 18 6 18 C6 14.04 6 10.08 6 6 C4.68 6 3.36 6 2 6 C2 7.65 2 9.3 2 11 C1.67 11 1.34 11 1 11 C1 9.35 1 7.7 1 6 C0.34 6 -0.32 6 -1 6 C-1.042721 4.33388095 -1.04063832 2.66617115 -1 1 C-0.67 0.67 -0.34 0.34 0 0 Z " fill="#404140" transform="translate(48,58)"/>
<path d="M0 0 C3.96 0 7.92 0 12 0 C11.67 1.65 11.34 3.3 11 5 C9.35 5 7.7 5 6 5 C6.061875 6.010625 6.12375 7.02125 6.1875 8.0625 C5.97357173 12.55499372 4.95386468 15.01085961 3 19 C-0.3 18.34 -3.6 17.68 -7 17 C-6.505 16.236875 -6.01 15.47375 -5.5 14.6875 C-3.75631692 12.07636249 -3.75631692 12.07636249 -4 9 C-3.34 9 -2.68 9 -2 9 C-2 8.34 -2 7.68 -2 7 C-1.34 6.34 -0.68 5.68 0 5 C-0.33 4.01 -0.66 3.02 -1 2 C-0.67 1.34 -0.34 0.68 0 0 Z " fill="#293246" transform="translate(76,78)"/>
<path d="M0 0 C0 4.95 0 9.9 0 15 C-0.99 15.33 -1.98 15.66 -3 16 C-3.66 15.34 -4.32 14.68 -5 14 C-5.433125 15.2065625 -5.433125 15.2065625 -5.875 16.4375 C-7 19 -7 19 -9 20 C-9.66 20.66 -10.32 21.32 -11 22 C-11.99 21.34 -12.98 20.68 -14 20 C-13.21681311 16.08406554 -11.60820142 12.63593365 -10 9 C-9.67 9.66 -9.34 10.32 -9 11 C-8.34 10.67 -7.68 10.34 -7 10 C-6.87625 8.700625 -6.7525 7.40125 -6.625 6.0625 C-6.41015625 3.87890625 -6.41015625 3.87890625 -6 2 C-3.81734379 0.31020164 -2.72785349 0 0 0 Z " fill="#273045" transform="translate(98,71)"/>
<path d="M0 0 C2.97 0.495 2.97 0.495 6 1 C5.48194307 3.59028463 4.96048126 6.17388247 4.375 8.75 C4.25125 9.4925 4.1275 10.235 4 11 C5.96822886 12.96822886 9.34808709 12.66248381 12 13 C12.33 13.99 12.66 14.98 13 16 C12.01 16 11.02 16 10 16 C10 16.66 10 17.32 10 18 C9.67 18.33 9.34 18.66 9 19 C8.67 19.66 8.34 20.32 8 21 C7.01 21 6.02 21 5 21 C4.67 20.67 4.34 20.34 4 20 C1.96994518 20 -0.06064427 20.00357588 -2.08984375 20.0625 C-4 20 -4 20 -6 19 C-6 19.66 -6 20.32 -6 21 C-6.66 20.67 -7.32 20.34 -8 20 C-7.67 19.34 -7.34 18.68 -7 18 C-4.03 18 -1.06 18 2 18 C2 17.34 2 16.68 2 16 C1.34 16 0.68 16 0 16 C0 10.72 0 5.44 0 0 Z " fill="#000523" transform="translate(50,26)"/>
<path d="M0 0 C1.65 0 3.3 0 5 0 C3.21551067 8.90385821 -0.67741309 14.86887083 -7.8671875 20.44921875 C-11.61148692 22.82060838 -14.6231935 23.42700551 -19 23 C-18.01 22.34 -17.02 21.68 -16 21 C-17.32 21 -18.64 21 -20 21 C-20 20.34 -20 19.68 -20 19 C-19.14728516 18.77957031 -19.14728516 18.77957031 -18.27734375 18.5546875 C-12.47134681 16.86813747 -7.83064156 14.8131118 -4 10 C-2.35947909 6.75293346 -1.10220084 3.46405977 0 0 Z " fill="#A27C44" transform="translate(72,39)"/>
<path d="M0 0 C2.15377564 2.62198774 3.40072174 4.64404172 4 8 C4.78375 7.34 5.5675 6.68 6.375 6 C9 4 9 4 11 4 C10.01 7.63 9.02 11.26 8 15 C6 14 6 14 5 12 C5 12.99 5 13.98 5 15 C2.03 14.505 2.03 14.505 -1 14 C-1.33 15.32 -1.66 16.64 -2 18 C-2.66 17.34 -3.32 16.68 -4 16 C-3.67 15.030625 -3.34 14.06125 -3 13.0625 C-1.94826637 10.37850426 -1.94826637 10.37850426 -2 9 C-3.31337396 7.9739266 -4.64664105 6.97272675 -6 6 C-4.02 4.02 -2.04 2.04 0 0 Z " fill="#3A455A" transform="translate(14,16)"/>
<path d="M0 0 C1.32 0.33 2.64 0.66 4 1 C3.01 2.32 2.02 3.64 1 5 C1.99 5.33 2.98 5.66 4 6 C2.35 6.33 0.7 6.66 -1 7 C-1 7.66 -1 8.32 -1 9 C-2.175625 9.53625 -3.35125 10.0725 -4.5625 10.625 C-8.96907884 12.80865226 -12.4283659 15.65159303 -16 19 C-16.66 17.02 -17.32 15.04 -18 13 C-17.51789062 12.68546875 -17.03578125 12.3709375 -16.5390625 12.046875 C-11.74628648 8.90611252 -11.74628648 8.90611252 -9 4 C-6.525 4.99 -6.525 4.99 -4 6 C-2.68 4.02 -1.36 2.04 0 0 Z " fill="#343E54" transform="translate(42,0)"/>
<path d="M0 0 C8.91 0 17.82 0 27 0 C27.33 1.32 27.66 2.64 28 4 C27 5 27 5 24.78515625 5.09765625 C23.43744141 5.08025391 23.43744141 5.08025391 22.0625 5.0625 C21.16660156 5.05347656 20.27070312 5.04445313 19.34765625 5.03515625 C18.57292969 5.02355469 17.79820313 5.01195313 17 5 C16.34 5 15.68 5 15 5 C10.33333333 5 5.66666667 5 1 5 C0.67 3.35 0.34 1.7 0 0 Z " fill="#BABCBF" transform="translate(16,78)"/>
<path d="M0 0 C1.32 1.65 2.64 3.3 4 5 C3.07316406 5.91523437 2.14632812 6.83046875 1.19140625 7.7734375 C-0.01836039 8.9738261 -1.22798865 10.17435417 -2.4375 11.375 C-3.04916016 11.97828125 -3.66082031 12.5815625 -4.29101562 13.203125 C-4.87431641 13.78320312 -5.45761719 14.36328125 -6.05859375 14.9609375 C-6.59798584 15.49509277 -7.13737793 16.02924805 -7.69311523 16.57958984 C-9.10846977 17.98652388 -9.10846977 17.98652388 -10 20 C-8.35 19.01 -6.7 18.02 -5 17 C-5.33 17.598125 -5.66 18.19625 -6 18.8125 C-7.20787988 21.05386471 -7.20787988 21.05386471 -7 24 C-7.15127402 25.56406528 -7.31902522 27.12659252 -7.5 28.6875 C-7.5928125 29.49574219 -7.685625 30.30398437 -7.78125 31.13671875 C-7.88953125 32.05904297 -7.88953125 32.05904297 -8 33 C-9.95435299 29.46683636 -10.08968561 27.03585224 -10 23 C-11.73956658 21.26043342 -14.1936622 21.62809614 -16.5625 21.4375 C-17.57441406 21.35371094 -18.58632813 21.26992188 -19.62890625 21.18359375 C-20.80259766 21.09271484 -20.80259766 21.09271484 -22 21 C-22 20.67 -22 20.34 -22 20 C-20.7625 19.6596875 -20.7625 19.6596875 -19.5 19.3125 C-10.51960723 15.94485271 -4.65059407 10.78311433 -0.625 2 C-0.315625 1.01 -0.315625 1.01 0 0 Z " fill="#0F0F1F" transform="translate(76,42)"/>
<path d="M0 0 C1.03769531 -0.02578125 2.07539062 -0.0515625 3.14453125 -0.078125 C6.58765955 0.29314942 8.4105028 1.22274272 11.1875 3.25 C12.87807529 5.63217427 13.29500048 6.60499714 12.8125 9.5 C12.503125 10.36625 12.503125 10.36625 12.1875 11.25 C10.1875 8.25 10.1875 8.25 10.1875 4.25 C7.2175 3.59 4.2475 2.93 1.1875 2.25 C1.1875 7.53 1.1875 12.81 1.1875 18.25 C1.8475 18.25 2.5075 18.25 3.1875 18.25 C3.1875 18.91 3.1875 19.57 3.1875 20.25 C0.2175 20.25 -2.7525 20.25 -5.8125 20.25 C-5.4825 19.26 -5.1525 18.27 -4.8125 17.25 C-3.8225 16.92 -2.8325 16.59 -1.8125 16.25 C-1.8125 11.96 -1.8125 7.67 -1.8125 3.25 C-3.7925 3.25 -5.7725 3.25 -7.8125 3.25 C-7.8125 3.91 -7.8125 4.57 -7.8125 5.25 C-8.4725 5.25 -9.1325 5.25 -9.8125 5.25 C-7.49092831 0.10937697 -5.49417392 0.08129481 0 0 Z " fill="#E7D0AD" transform="translate(48.8125,23.75)"/>
<path d="M0 0 C0 4.29 0 8.58 0 13 C-1.98 13.99 -1.98 13.99 -4 15 C-5.70921589 16.5412312 -5.70921589 16.5412312 -7 18 C-7.33 16.68 -7.66 15.36 -8 14 C-9.32 14 -10.64 14 -12 14 C-12.33 12.68 -12.66 11.36 -13 10 C-12.236875 10.226875 -11.47375 10.45375 -10.6875 10.6875 C-8.05628085 11.24201842 -8.05628085 11.24201842 -6.125 10.0625 C-4.27661597 6.67379594 -5.32754145 3.72908833 -6 0 C-4 -1 -4 -1 0 0 Z " fill="#222530" transform="translate(48,27)"/>
<path d="M0 0 C1.98 0.66 3.96 1.32 6 2 C6.33 1.34 6.66 0.68 7 0 C7.66 0 8.32 0 9 0 C8.21222021 5.87254026 5.19087151 9.01608511 1 13 C-3.15144242 15.71114607 -6.06950874 16.35217795 -11 16 C-10.67 14.02 -10.34 12.04 -10 10 C-9.34 10 -8.68 10 -8 10 C-8 10.99 -8 11.98 -8 13 C-7.34 13.33 -6.68 13.66 -6 14 C-6 12.02 -6 10.04 -6 8 C-5.34 8 -4.68 8 -4 8 C-3.67 8.66 -3.34 9.32 -3 10 C-2.01 10 -1.02 10 0 10 C0 8.35 0 6.7 0 5 C0.66 5 1.32 5 2 5 C2 5.66 2 6.32 2 7 C2.99 7 3.98 7 5 7 C5 6.34 5 5.68 5 5 C4.360625 4.731875 3.72125 4.46375 3.0625 4.1875 C1 3 1 3 0 0 Z " fill="#1E5FB0" transform="translate(62,42)"/>
<path d="M0 0 C6.62290192 3.4691391 11.58381534 7.35779182 14.625 14.375 C14.28515625 17.16015625 14.28515625 17.16015625 13.625 19.375 C12.46832688 17.63999032 11.31851492 15.90028126 10.1875 14.1484375 C9.671875 13.35695313 9.15625 12.56546875 8.625 11.75 C7.8515625 10.55503906 7.8515625 10.55503906 7.0625 9.3359375 C5.76711467 7.25565803 5.76711467 7.25565803 3.625 6.375 C1.52678785 6.77438767 1.52678785 6.77438767 -0.375 7.375 C-0.375 6.715 -0.375 6.055 -0.375 5.375 C-4.335 5.045 -8.295 4.715 -12.375 4.375 C-12.375 3.715 -12.375 3.055 -12.375 2.375 C-10.29946352 1.8215236 -8.53134036 1.375 -6.375 1.375 C-5.776875 1.00375 -5.17875 0.6325 -4.5625 0.25 C-2.375 -0.625 -2.375 -0.625 0 0 Z " fill="#A68E60" transform="translate(60.375,9.625)"/>
<path d="M0 0 C-1 2 -1 2 -2.8203125 2.640625 C-3.58085938 2.84171875 -4.34140625 3.0428125 -5.125 3.25 C-11.47371166 5.26177328 -15.47327264 8.56677827 -19 14.1875 C-20.3338883 17.02462262 -20.3338883 17.02462262 -19 20 C-19.4375 22.6875 -19.4375 22.6875 -20 25 C-20.66 25 -21.32 25 -22 25 C-22 23.68 -22 22.36 -22 21 C-22.33 22.32 -22.66 23.64 -23 25 C-26.63 24.67 -30.26 24.34 -34 24 C-33.505 22.515 -33.505 22.515 -33 21 C-31.35 21.33 -29.7 21.66 -28 22 C-27.67 21.01 -27.34 20.02 -27 19 C-26.34 19.33 -25.68 19.66 -25 20 C-24.67 20.99 -24.34 21.98 -24 23 C-23.9690625 21.5459375 -23.9690625 21.5459375 -23.9375 20.0625 C-23.00551296 13.49864841 -17.68308432 8.2961119 -12.875 4.0625 C-8.52495894 0.94181837 -5.36556244 -0.30660357 0 0 Z " fill="#D1C9A6" transform="translate(46,8)"/>
<path d="M0 0 C-0.20625 0.598125 -0.4125 1.19625 -0.625 1.8125 C-1.30671915 4.28450846 -1.30671915 4.28450846 1 7 C2.32 6.67 3.64 6.34 5 6 C5 7.32 5 8.64 5 10 C3.68 10 2.36 10 1 10 C1 11.32 1 12.64 1 14 C-2.37462715 13.45276317 -4.08235 12.9451 -7 11 C-7.5 7.625 -7.5 7.625 -7 4 C-3.1025641 0 -3.1025641 0 0 0 Z " fill="#5F90C0" transform="translate(71,28)"/>
<path d="M0 0 C0.99 0 1.98 0 3 0 C3.66 0.99 4.32 1.98 5 3 C5.33 2.01 5.66 1.02 6 0 C6.99 0 7.98 0 9 0 C9 3.96 9 7.92 9 12 C7.35 11.67 5.7 11.34 4 11 C2.68 11.33 1.36 11.66 0 12 C0 8.04 0 4.08 0 0 Z " fill="#B6B9BB" transform="translate(17,64)"/>
<path d="M0 0 C2.97 0 5.94 0 9 0 C8.01 0.495 8.01 0.495 7 1 C7.33 3.97 7.66 6.94 8 10 C6.02 10.99 6.02 10.99 4 12 C3.67 10.35 3.34 8.7 3 7 C2.34 7 1.68 7 1 7 C1 8.32 1 9.64 1 11 C0.01 11 -0.98 11 -2 11 C-2 8.03 -2 5.06 -2 2 C-1.34 2 -0.68 2 0 2 C0 1.34 0 0.68 0 0 Z " fill="#988252" transform="translate(44,45)"/>
<path d="M0 0 C2.97 0.33 5.94 0.66 9 1 C9 1.99 9 2.98 9 4 C9.66 4.66 10.32 5.32 11 6 C5.555 5.505 5.555 5.505 0 5 C-0.33 5.99 -0.66 6.98 -1 8 C-1.66 8 -2.32 8 -3 8 C-3.33 8.66 -3.66 9.32 -4 10 C-4.66 10 -5.32 10 -6 10 C-6.33 11.32 -6.66 12.64 -7 14 C-7.33 13.01 -7.66 12.02 -8 11 C-8.99 10.34 -9.98 9.68 -11 9 C-11 8.01 -11 7.02 -11 6 C-7.62902617 4.50178941 -5.79557881 4 -2 4 C-1.34 2.68 -0.68 1.36 0 0 Z " fill="#ADC3C2" transform="translate(48,7)"/>
<path d="M0 0 C0.99 0 1.98 0 3 0 C3.66 0.99 4.32 1.98 5 3 C5.33 2.01 5.66 1.02 6 0 C6.99 0 7.98 0 9 0 C9 3.96 9 7.92 9 12 C7.35 11.67 5.7 11.34 4 11 C3.67 10.34 3.34 9.68 3 9 C2.67 9.99 2.34 10.98 2 12 C1.34 12 0.68 12 0 12 C0 8.04 0 4.08 0 0 Z " fill="#DADCDD" transform="translate(71,64)"/>
<path d="M0 0 C0 3.63 0 7.26 0 11 C0.99 11 1.98 11 3 11 C3.33 10.34 3.66 9.68 4 9 C4.66 9.33 5.32 9.66 6 10 C6.33 9.34 6.66 8.68 7 8 C7.33 8.99 7.66 9.98 8 11 C8.66 11.33 9.32 11.66 10 12 C9.67 13.32 9.34 14.64 9 16 C9 15.01 9 14.02 9 13 C8.01 13.33 7.02 13.66 6 14 C4.00038436 14.03920815 1.99950636 14.04443347 0 14 C0 15.32 0 16.64 0 18 C-0.66 18 -1.32 18 -2 18 C-2.28875 17.360625 -2.5775 16.72125 -2.875 16.0625 C-3.82823451 13.84793921 -3.82823451 13.84793921 -6 13 C-6.33 13.66 -6.66 14.32 -7 15 C-7 14.01 -7 13.02 -7 12 C-5.02 12 -3.04 12 -1 12 C-1 11.01 -1 10.02 -1 9 C-1.99 9 -2.98 9 -4 9 C-4 8.01 -4 7.02 -4 6 C-3.34 6 -2.68 6 -2 6 C-2 5.34 -2 4.68 -2 4 C-2.66 4 -3.32 4 -4 4 C-4 3.01 -4 2.02 -4 1 C-1 0 -1 0 0 0 Z " fill="#242734" transform="translate(17,65)"/>
<path d="M0 0 C1.134375 0.020625 2.26875 0.04125 3.4375 0.0625 C3.29712479 1.87543089 3.15005111 3.6878443 3 5.5 C2.91878906 6.50933594 2.83757813 7.51867187 2.75390625 8.55859375 C2.4375 11.0625 2.4375 11.0625 1.4375 12.0625 C-1.0625 12.1875 -1.0625 12.1875 -3.5625 12.0625 C-4.5625 11.0625 -4.5625 11.0625 -4.6953125 8.8125 C-4.69273438 7.905 -4.69015625 6.9975 -4.6875 6.0625 C-4.69007812 5.155 -4.69265625 4.2475 -4.6953125 3.3125 C-4.47442744 -0.42955275 -3.90581879 0.06852314 0 0 Z " fill="#949699" transform="translate(39.5625,63.9375)"/>
<path d="M0 0 C0.33 0 0.66 0 1 0 C1 3.96 1 7.92 1 12 C2.98 12 4.96 12 7 12 C7 12.33 7 12.66 7 13 C5.02 13 3.04 13 1 13 C0.67 14.65 0.34 16.3 0 18 C-0.99 18 -1.98 18 -3 18 C-4.38671875 16.46875 -4.38671875 16.46875 -5.6875 14.5 C-6.34298828 13.52546875 -6.34298828 13.52546875 -7.01171875 12.53125 C-7.50091797 11.77328125 -7.50091797 11.77328125 -8 11 C-7.50628906 10.62488281 -7.01257813 10.24976562 -6.50390625 9.86328125 C-2.37086245 6.6715022 -2.37086245 6.6715022 -0.0625 2.125 C-0.041875 1.42375 -0.02125 0.7225 0 0 Z " fill="#293041" transform="translate(9,64)"/>
<path d="M0 0 C1.49498913 2.98997825 1.11577446 5.70042775 1 9 C0.67 9.99 0.34 10.98 0 12 C0.99 12 1.98 12 3 12 C3 10.68 3 9.36 3 8 C3.66 8 4.32 8 5 8 C5 9.98 5 11.96 5 14 C1.22741269 13.70980098 -1.32665983 13.48342371 -4.4375 11.25 C-6.32248231 8.53562548 -6.49848749 7.24016867 -6 4 C-4 1 -4 1 -1.875 0.3125 C-1.25625 0.209375 -0.6375 0.10625 0 0 Z " fill="#817D64" transform="translate(42,44)"/>
<path d="M0 0 C0.99 0 1.98 0 3 0 C3.66 0.99 4.32 1.98 5 3 C5.99 3 6.98 3 8 3 C7.01 5.97 6.02 8.94 5 12 C4.34 12 3.68 12 3 12 C2.67 11.01 2.34 10.02 2 9 C-0.01508358 8.26676204 -0.01508358 8.26676204 -2 8 C-2.66 9.32 -3.32 10.64 -4 12 C-4.33 11.34 -4.66 10.68 -5 10 C-7.01669827 8.86649466 -7.01669827 8.86649466 -9 8 C-8.34 8 -7.68 8 -7 8 C-6.67 6.02 -6.34 4.04 -6 2 C-4.875 5.75 -4.875 5.75 -6 8 C-5.34 8 -4.68 8 -4 8 C-4 6.35 -4 4.7 -4 3 C-3.67 4.32 -3.34 5.64 -3 7 C-1.35 6.67 0.3 6.34 2 6 C1.34 5.67 0.68 5.34 0 5 C0 4.34 0 3.68 0 3 C0.66 3 1.32 3 2 3 C2 2.34 2 1.68 2 1 C1.34 0.67 0.68 0.34 0 0 Z " fill="#647172" transform="translate(30,25)"/>
<path d="M0 0 C0.33 1.32 0.66 2.64 1 4 C1.66 4 2.32 4 3 4 C3.33 2.68 3.66 1.36 4 0 C4 1.32 4 2.64 4 4 C7.465 3.505 7.465 3.505 11 3 C11.33 2.01 11.66 1.02 12 0 C12.66 0 13.32 0 14 0 C13.67 1.32 13.34 2.64 13 4 C13.99 3.67 14.98 3.34 16 3 C16.99 3.66 17.98 4.32 19 5 C15.88856433 6.03714522 13.50531904 6.20031861 10.23828125 6.31640625 C9.12001953 6.35830078 8.00175781 6.40019531 6.84960938 6.44335938 C5.09874023 6.50233398 5.09874023 6.50233398 3.3125 6.5625 C2.13365234 6.60568359 0.95480469 6.64886719 -0.25976562 6.69335938 C-3.17305883 6.79951176 -6.08643757 6.90156242 -9 7 C-9.33 6.01 -9.66 5.02 -10 4 C-6.8035914 2.93453047 -4.34252724 2.92572162 -1 3 C-0.67 2.01 -0.34 1.02 0 0 Z " fill="#060719" transform="translate(32,79)"/>
<path d="M0 0 C0.66 0 1.32 0 2 0 C2 3.96 2 7.92 2 12 C3.65 12 5.3 12 7 12 C7 11.34 7 10.68 7 10 C6.01 10 5.02 10 4 10 C4 9.01 4 8.02 4 7 C4.99 7 5.98 7 7 7 C7 6.34 7 5.68 7 5 C6.01 5 5.02 5 4 5 C4 4.01 4 3.02 4 2 C4.99 2 5.98 2 7 2 C7 1.34 7 0.68 7 0 C7.66 0 8.32 0 9 0 C9 3.96 9 7.92 9 12 C10.32 12.66 11.64 13.32 13 14 C9.04 13.67 5.08 13.34 1 13 C0.67 8.71 0.34 4.42 0 0 Z " fill="#666A72" transform="translate(52,64)"/>
<path d="M0 0 C0.66 0.99 1.32 1.98 2 3 C3.65 2.67 5.3 2.34 7 2 C6.8238342 7.37305699 6.8238342 7.37305699 6 10 C2.9375 12 2.9375 12 0 13 C-1.32 11.68 -2.64 10.36 -4 9 C-3.01 7.68 -2.02 6.36 -1 5 C-1.66 4.34 -2.32 3.68 -3 3 C-2.34 3 -1.68 3 -1 3 C-0.67 2.01 -0.34 1.02 0 0 Z " fill="#2E384F" transform="translate(7,35)"/>
<path d="M0 0 C1.32 0.66 2.64 1.32 4 2 C3.01 2.495 3.01 2.495 2 3 C2.3403125 3.8971875 2.3403125 3.8971875 2.6875 4.8125 C3 7 3 7 1.8125 8.625 C-0.51081334 10.38751357 -1.80733383 10.31272462 -4.6875 10.1875 C-5.89986328 10.14689453 -5.89986328 10.14689453 -7.13671875 10.10546875 C-7.75160156 10.07066406 -8.36648438 10.03585938 -9 10 C-8.06409496 8.8944811 -7.12620142 7.79064547 -6.1875 6.6875 C-5.66542969 6.07261719 -5.14335937 5.45773438 -4.60546875 4.82421875 C-3.12827531 3.14575321 -1.59960869 1.56117966 0 0 Z " fill="#39455B" transform="translate(20,52)"/>
<path d="M0 0 C2.64194427 2.64194427 2.85205998 4.3014996 3 8 C1.3125 10.4375 1.3125 10.4375 -1 12 C-3.1875 11.9375 -3.1875 11.9375 -5 11 C-6.39195915 6.82412255 -4.82323219 4.86525224 -3 1 C-2.01 1.33 -1.02 1.66 0 2 C0 1.34 0 0.68 0 0 Z " fill="#C9CACB" transform="translate(41,27)"/>
<path d="M0 0 C2.64 0 5.28 0 8 0 C8 0.66 8 1.32 8 2 C9.65 2.33 11.3 2.66 13 3 C12.67 3.99 12.34 4.98 12 6 C10.68 5.67 9.36 5.34 8 5 C8 4.34 8 3.68 8 3 C5.69 3 3.38 3 1 3 C0.34 4.32 -0.32 5.64 -1 7 C-2.32 6.67 -3.64 6.34 -5 6 C-4.67 4.68 -4.34 3.36 -4 2 C-2.68 2 -1.36 2 0 2 C0 1.34 0 0.68 0 0 Z " fill="#8D9892" transform="translate(13,32)"/>
<path d="M0 0 C0.66 0.33 1.32 0.66 2 1 C3.67654729 0.72057545 5.34608154 0.39171753 7 0 C7.99 1.32 8.98 2.64 10 4 C9.34 4.66 8.68 5.32 8 6 C7.01 5.67 6.02 5.34 5 5 C5 5.66 5 6.32 5 7 C4.34 7 3.68 7 3 7 C3 7.66 3 8.32 3 9 C3.99 9.33 4.98 9.66 6 10 C3.92446352 10.5534764 2.15634036 11 0 11 C-0.144375 10.05125 -0.28875 9.1025 -0.4375 8.125 C-0.82935399 5.1065506 -0.82935399 5.1065506 -2 3 C-1.34 2.01 -0.68 1.02 0 0 Z " fill="#90A79F" transform="translate(27,21)"/>
<path d="M0 0 C-0.33645789 3.14027363 -1.05236086 4.05098295 -3.375 6.3125 C-4.674375 7.1478125 -4.674375 7.1478125 -6 8 C-6.99 7.67 -7.98 7.34 -9 7 C-9 7.99 -9 8.98 -9 10 C-11 9 -11 9 -11.875 7.1875 C-12 5 -12 5 -10.25 2.8125 C-6.85403657 0.07686279 -4.22416923 -0.11416674 0 0 Z " fill="#293246" transform="translate(73,88)"/>
<path d="M0 0 C5.61 0 11.22 0 17 0 C16.67 1.65 16.34 3.3 16 5 C15.67 3.68 15.34 2.36 15 1 C14.34 1 13.68 1 13 1 C13 2.32 13 3.64 13 5 C6.84765625 5.09765625 6.84765625 5.09765625 5 5 C4.67 4.67 4.34 4.34 4 4 C3.01 4.33 2.02 4.66 1 5 C0.67 3.35 0.34 1.7 0 0 Z " fill="#A7A9AD" transform="translate(58,78)"/>
<path d="M0 0 C1.65 0.33 3.3 0.66 5 1 C5 1.99 5 2.98 5 4 C5.66 4 6.32 4 7 4 C7.6875 6.3125 7.6875 6.3125 8 9 C6.8125 10.8125 6.8125 10.8125 5 12 C3.68 12 2.36 12 1 12 C1 10.68 1 9.36 1 8 C1.639375 7.87625 2.27875 7.7525 2.9375 7.625 C3.618125 7.41875 4.29875 7.2125 5 7 C5.33 6.34 5.66 5.68 6 5 C4.02 5.33 2.04 5.66 0 6 C-1.125 2.25 -1.125 2.25 0 0 Z " fill="#6F7567" transform="translate(28,33)"/>
<path d="M0 0 C1.65 0 3.3 0 5 0 C6 1 6 1 6.09765625 3.50390625 C6.08605469 4.51324219 6.07445313 5.52257812 6.0625 6.5625 C6.05347656 7.57441406 6.04445313 8.58632812 6.03515625 9.62890625 C6.02355469 10.41136719 6.01195313 11.19382812 6 12 C5.34 12 4.68 12 4 12 C4 10.35 4 8.7 4 7 C3.34 7 2.68 7 2 7 C2 8.65 2 10.3 2 12 C1.34 12 0.68 12 0 12 C0 8.04 0 4.08 0 0 Z " fill="#E7E8E8" transform="translate(61,64)"/>
<path d="M0 0 C3 1 3 1 4.25 3.25 C5.07700926 6.28236729 4.85394079 8.01120724 4 11 C2.35 11.33 0.7 11.66 -1 12 C-2.1875 10.5 -2.1875 10.5 -3 8 C-2.27101296 5.21175762 -1.1843275 2.62334908 0 0 Z " fill="#B9BABD" transform="translate(56,27)"/>
<path d="M0 0 C0.53625 0.474375 1.0725 0.94875 1.625 1.4375 C4.42842836 3.28186076 6.69620258 3.62456847 10 4 C10 2.68 10 1.36 10 0 C11.32 0 12.64 0 14 0 C14.66 0.99 15.32 1.98 16 3 C18.05003955 4.19232613 18.05003955 4.19232613 20 5 C15.22907044 6.23402862 10.57530554 6.11265112 5.6875 6.0625 C4.85154297 6.05798828 4.01558594 6.05347656 3.15429688 6.04882812 C1.10283351 6.03710548 -0.94859273 6.01917203 -3 6 C-2.01 5.67 -1.02 5.34 0 5 C0 3.35 0 1.7 0 0 Z " fill="#1B1E33" transform="translate(61,79)"/>
<path d="M0 0 C-0.33 0.99 -0.66 1.98 -1 3 C-13.87 2.505 -13.87 2.505 -27 2 C-27 1.34 -27 0.68 -27 0 C-23.06290089 -0.19665429 -19.12531328 -0.38075477 -15.1875 -0.5625 C-14.06794922 -0.61857422 -12.94839844 -0.67464844 -11.79492188 -0.73242188 C-10.72177734 -0.78076172 -9.64863281 -0.82910156 -8.54296875 -0.87890625 C-7.0583313 -0.94960327 -7.0583313 -0.94960327 -5.54370117 -1.02172852 C-3 -1 -3 -1 0 0 Z " fill="#B39D6B" transform="translate(51,85)"/>
<path d="M0 0 C0.33 0 0.66 0 1 0 C1 4.95 1 9.9 1 15 C2.299375 15.12375 3.59875 15.2475 4.9375 15.375 C7.15234375 15.5859375 7.15234375 15.5859375 9 16 C9.33 16.66 9.66 17.32 10 18 C9.67 18.33 9.34 18.66 9 19 C8.67 19.66 8.34 20.32 8 21 C7.01 21 6.02 21 5 21 C4.67 20.67 4.34 20.34 4 20 C1.96994518 20 -0.06064427 20.00357588 -2.08984375 20.0625 C-4 20 -4 20 -6 19 C-6 19.66 -6 20.32 -6 21 C-6.66 20.67 -7.32 20.34 -8 20 C-7.67 19.34 -7.34 18.68 -7 18 C-4.03 18 -1.06 18 2 18 C2 17.34 2 16.68 2 16 C1.34 16 0.68 16 0 16 C0 10.72 0 5.44 0 0 Z " fill="#3B3035" transform="translate(50,26)"/>
<path d="M0 0 C2.0625 0.4375 2.0625 0.4375 4 1 C3.67 2.32 3.34 3.64 3 5 C1.68 5 0.36 5 -1 5 C-0.67 6.32 -0.34 7.64 0 9 C-1.32 8.67 -2.64 8.34 -4 8 C-4 7.34 -4 6.68 -4 6 C-5.32 5.67 -6.64 5.34 -8 5 C-8 3.68 -8 2.36 -8 1 C-6.865625 1.020625 -5.73125 1.04125 -4.5625 1.0625 C-1.18424326 1.41577477 -1.18424326 1.41577477 0 0 Z " fill="#AC9765" transform="translate(86,34)"/>
<path d="M0 0 C2 2 4 4 6 6 C6.66 6 7.32 6 8 6 C8 7.65 8 9.3 8 11 C8.66 9.68 9.32 8.36 10 7 C10.66 7 11.32 7 12 7 C12 8.32 12 9.64 12 11 C13.65 10.34 15.3 9.68 17 9 C16.67 9.99 16.34 10.98 16 12 C10.06 12.495 10.06 12.495 4 13 C3.25130208 10.49348958 2.50260417 7.98697917 1.75390625 5.48046875 C1.19612127 3.64526945 0.60655425 1.81966274 0 0 Z " fill="#C7AC72" transform="translate(68,20)"/>
<path d="M0 0 C0.99 0.33 1.98 0.66 3 1 C3.6875 3.0625 3.6875 3.0625 4 5 C4.66 4.01 5.32 3.02 6 2 C6.33 2.99 6.66 3.98 7 5 C7.66 5.66 8.32 6.32 9 7 C8 8.5625 8 8.5625 6 10 C2.15322329 10.02404235 -1.36689686 9.21103438 -5 8 C-4.34 7.67 -3.68 7.34 -3 7 C-3 5.68 -3 4.36 -3 3 C-2.34 3 -1.68 3 -1 3 C-0.67 2.01 -0.34 1.02 0 0 Z " fill="#444344" transform="translate(53,16)"/>
<path d="M0 0 C0.33 0.99 0.66 1.98 1 3 C4.3 3 7.6 3 11 3 C11 2.34 11 1.68 11 1 C11.66 1 12.32 1 13 1 C13 2.65 13 4.3 13 6 C13.66 6 14.32 6 15 6 C14.67 6.99 14.34 7.98 14 9 C11.9375 9.6875 11.9375 9.6875 10 10 C10 8.68 10 7.36 10 6 C9.05125 6.020625 8.1025 6.04125 7.125 6.0625 C4 6 4 6 2 5 C1.67 5.66 1.34 6.32 1 7 C1 6.01 1 5.02 1 4 C-0.32 4 -1.64 4 -3 4 C-3 3.34 -3 2.68 -3 2 C-2.01 2 -1.02 2 0 2 C0 1.34 0 0.68 0 0 Z " fill="#1C2331" transform="translate(77,73)"/>
<path d="M0 0 C1.65 0 3.3 0 5 0 C6 1 6 1 6.0625 4.0625 C6.041875 5.031875 6.02125 6.00125 6 7 C4.68 7.33 3.36 7.66 2 8 C2 9.32 2 10.64 2 12 C1.34 12 0.68 12 0 12 C0 8.04 0 4.08 0 0 Z " fill="#E6E7E8" transform="translate(28,64)"/>
<path d="M0 0 C1.98 0 3.96 0 6 0 C6 0.66 6 1.32 6 2 C5.01 2 4.02 2 3 2 C3 2.99 3 3.98 3 5 C3.66 5 4.32 5 5 5 C5 5.66 5 6.32 5 7 C4.34 7 3.68 7 3 7 C3 7.99 3 8.98 3 10 C3.99 10 4.98 10 6 10 C6 10.66 6 11.32 6 12 C4.02 12 2.04 12 0 12 C0 8.04 0 4.08 0 0 Z " fill="#D9DBDD" transform="translate(10,64)"/>
<path d="M0 0 C0.66 0.66 1.32 1.32 2 2 C1.01 3.485 1.01 3.485 0 5 C0.33820153 7.01954441 0.33820153 7.01954441 1 9 C1 9.99 1 10.98 1 12 C-1.5 14.1875 -1.5 14.1875 -4 16 C-4.17855281 10.82196838 -4.07828238 6.84932556 -2 2 C-1.34 1.34 -0.68 0.68 0 0 Z " fill="#2E3951" transform="translate(4,58)"/>
<path d="M0 0 C3.96 0 7.92 0 12 0 C11.67 1.65 11.34 3.3 11 5 C7.04 5 3.08 5 -1 5 C-0.67 3.35 -0.34 1.7 0 0 Z " fill="#B6B8BC" transform="translate(76,78)"/>
<path d="M0 0 C3 2 3 2 3.75 4.4375 C4 7 4 7 3 10 C2.01 10 1.02 10 0 10 C-0.66 10.66 -1.32 11.32 -2 12 C-2.66 11.34 -3.32 10.68 -4 10 C-4 6 -4 6 -2.5625 4.4375 C-2.046875 3.963125 -1.53125 3.48875 -1 3 C-0.67 2.01 -0.34 1.02 0 0 Z " fill="#78795C" transform="translate(65,18)"/>
<path d="M0 0 C4.67692308 1.47692308 4.67692308 1.47692308 6.3125 4.125 C6.539375 4.74375 6.76625 5.3625 7 6 C6.34 5.67 5.68 5.34 5 5 C4.54625 5.825 4.0925 6.65 3.625 7.5 C3.08875 8.325 2.5525 9.15 2 10 C1.34 10 0.68 10 0 10 C0 10.66 0 11.32 0 12 C-0.66 12 -1.32 12 -2 12 C-1.814375 11.443125 -1.62875 10.88625 -1.4375 10.3125 C-0.92448835 7.600867 -1.3359276 5.65628961 -2 3 C-1.01 2.67 -0.02 2.34 1 2 C0.67 1.34 0.34 0.68 0 0 Z " fill="#A5B29B" transform="translate(61,14)"/>
<path d="M0 0 C0.33 1.32 0.66 2.64 1 4 C2.65 4 4.3 4 6 4 C6 4.66 6 5.32 6 6 C6.66 6.33 7.32 6.66 8 7 C6.35 7.33 4.7 7.66 3 8 C3 8.99 3 9.98 3 11 C2.01 10.67 1.02 10.34 0 10 C-1.1875 6.9375 -1.1875 6.9375 -2 4 C-2.33 4.66 -2.66 5.32 -3 6 C-3 5.34 -3 4.68 -3 4 C-3.66 3.67 -4.32 3.34 -5 3 C-4.360625 2.87625 -3.72125 2.7525 -3.0625 2.625 C-2.0415625 2.315625 -2.0415625 2.315625 -1 2 C-0.67 1.34 -0.34 0.68 0 0 Z " fill="#785833" transform="translate(77,35)"/>
<path d="M0 0 C-0.185625 0.61875 -0.37125 1.2375 -0.5625 1.875 C-1.23686176 4.04160178 -1.23686176 4.04160178 0 6 C-0.4375 8.125 -0.4375 8.125 -1 10 C-2.875 9.8125 -2.875 9.8125 -5 9 C-6.25 6.4375 -6.25 6.4375 -7 4 C-2.25 0 -2.25 0 0 0 Z " fill="#8CAFC1" transform="translate(71,28)"/>
<path d="M0 0 C2.88395737 1.44197868 4.76525152 3.70644235 7 6 C6.01 6 5.02 6 4 6 C4.66 6.66 5.32 7.32 6 8 C4.68 8 3.36 8 2 8 C2 7.34 2 6.68 2 6 C-1.96 5.67 -5.92 5.34 -10 5 C-10 4.34 -10 3.68 -10 3 C-7.92446352 2.4465236 -6.15634036 2 -4 2 C-3.34 1.649375 -2.68 1.29875 -2 0.9375 C-1.34 0.628125 -0.68 0.31875 0 0 Z " fill="#63706D" transform="translate(58,9)"/>
<path d="M0 0 C0.99 0.33 1.98 0.66 3 1 C3.6875 3.0625 3.6875 3.0625 4 5 C5.32 5 6.64 5 8 5 C8.33 3.68 8.66 2.36 9 1 C9.625 3.375 9.625 3.375 10 6 C9.34 6.66 8.68 7.32 8 8 C8 7.34 8 6.68 8 6 C7.01 6.33 6.02 6.66 5 7 C2.66700175 7.03954234 0.33291811 7.04401732 -2 7 C-2.33 6.01 -2.66 5.02 -3 4 C-2.67 3.34 -2.34 2.68 -2 2 C-1.34 2 -0.68 2 0 2 C0 1.34 0 0.68 0 0 Z " fill="#535763" transform="translate(11,78)"/>
<path d="M0 0 C1.65 0 3.3 0 5 0 C5 0.66 5 1.32 5 2 C4.01 2 3.02 2 2 2 C2 2.99 2 3.98 2 5 C2.99 5 3.98 5 5 5 C5 5.66 5 6.32 5 7 C4.01 7 3.02 7 2 7 C2 7.99 2 8.98 2 10 C3.32 10 4.64 10 6 10 C6 10.66 6 11.32 6 12 C4.02 12 2.04 12 0 12 C0 8.04 0 4.08 0 0 Z " fill="#E4E6E7" transform="translate(82,64)"/>
<path d="M0 0 C1.65 0 3.3 0 5 0 C5 0.66 5 1.32 5 2 C4.01 2 3.02 2 2 2 C2 2.99 2 3.98 2 5 C2.99 5 3.98 5 5 5 C5 5.66 5 6.32 5 7 C4.01 7 3.02 7 2 7 C2 7.99 2 8.98 2 10 C2.99 10 3.98 10 5 10 C5 10.66 5 11.32 5 12 C3.35 12 1.7 12 0 12 C0 8.04 0 4.08 0 0 Z " fill="#E7E9E9" transform="translate(54,64)"/>
<path d="M0 0 C1.41655793 -0.0272415 2.83327045 -0.04650467 4.25 -0.0625 C5.43335938 -0.07990234 5.43335938 -0.07990234 6.640625 -0.09765625 C8.90691002 -0.00385306 10.8288895 0.36758937 13 1 C13 2.65 13 4.3 13 6 C7.57689095 5.56615128 4.29855944 4.35497322 0 1 C0 0.67 0 0.34 0 0 Z " fill="#997036" transform="translate(33,57)"/>
<path d="M0 0 C0.94875 0.165 1.8975 0.33 2.875 0.5 C5.80168901 1.0526635 5.80168901 1.0526635 8 1 C7.67 1.99 7.34 2.98 7 4 C5.68 4 4.36 4 3 4 C3 5.32 3 6.64 3 8 C5.9719385 6.87548273 8.33440687 5.77706209 11 4 C9.54744301 7.82946843 7.57104439 9.12050295 4 11 C0.85041169 7.57653445 0.43820891 4.55737263 0 0 Z " fill="#93CFE0" transform="translate(26,37)"/>
<path d="M0 0 C2 0 2 0 3.65625 1.609375 C4.2646875 2.31578125 4.873125 3.0221875 5.5 3.75 C6.1084375 4.44609375 6.716875 5.1421875 7.34375 5.859375 C8.87976963 7.84460792 9.9723966 9.71872045 11 12 C10.01 12.495 10.01 12.495 9 13 C9 13.99 9 14.98 9 16 C8.34 16 7.68 16 7 16 C6.74476562 15.11248047 6.74476562 15.11248047 6.484375 14.20703125 C4.98383027 9.31429763 3.42775087 5.90054409 0 2 C0 1.34 0 0.68 0 0 Z " fill="#23232F" transform="translate(69,15)"/>
<path d="M0 0 C0.66 0 1.32 0 2 0 C2 1.32 2 2.64 2 4 C2.99 4 3.98 4 5 4 C5 4.66 5 5.32 5 6 C1.5980513 8.09350689 -1.05272412 8.17942163 -5 8 C-4.67 6.02 -4.34 4.04 -4 2 C-3.34 2 -2.68 2 -2 2 C-2 2.99 -2 3.98 -2 5 C-1.34 5.33 -0.68 5.66 0 6 C0 4.02 0 2.04 0 0 Z " fill="#256BC2" transform="translate(56,50)"/>
<path d="M0 0 C1.32 0 2.64 0 4 0 C4.33 1.32 4.66 2.64 5 4 C3.68 3.67 2.36 3.34 1 3 C0.34 5.97 -0.32 8.94 -1 12 C-1.33 10.68 -1.66 9.36 -2 8 C-2.99 8 -3.98 8 -5 8 C-5.33 8.66 -5.66 9.32 -6 10 C-6 9.34 -6 8.68 -6 8 C-7.32 7.67 -8.64 7.34 -10 7 C-3.25 5.875 -3.25 5.875 -1 7 C-1 6.34 -1 5.68 -1 5 C-2.32 4.67 -3.64 4.34 -5 4 C-3.68 4 -2.36 4 -1 4 C-0.67 2.68 -0.34 1.36 0 0 Z " fill="#252F3F" transform="translate(47,56)"/>
<path d="M0 0 C1.98 0 3.96 0 6 0 C5.01 0.495 5.01 0.495 4 1 C4.33 3.97 4.66 6.94 5 10 C3.02 10.99 3.02 10.99 1 12 C0.34 10.02 -0.32 8.04 -1 6 C0.32 6 1.64 6 3 6 C3 4.35 3 2.7 3 1 C2.01 0.67 1.02 0.34 0 0 Z " fill="#5C584E" transform="translate(47,45)"/>
<path d="M0 0 C2.64 0 5.28 0 8 0 C6.68 0.33 5.36 0.66 4 1 C4 4.96 4 8.92 4 13 C4.66 13.33 5.32 13.66 6 14 C5.01 14.33 4.02 14.66 3 15 C2.34 14.34 1.68 13.68 1 13 C1.0234375 10.1796875 1.0234375 10.1796875 1.375 6.875 C1.48585938 5.77929688 1.59671875 4.68359375 1.7109375 3.5546875 C1.85402344 2.29011719 1.85402344 2.29011719 2 1 C1.34 0.67 0.68 0.34 0 0 Z " fill="#525661" transform="translate(24,63)"/>
<path d="M0 0 C0 3 0 3 -2.046875 5.3046875 C-3.38492188 6.57699219 -3.38492188 6.57699219 -4.75 7.875 C-7.43309999 10.44042017 -9.91607514 12.89256428 -12.203125 15.8203125 C-12.79609375 16.53960937 -13.3890625 17.25890625 -14 18 C-14.66 18 -15.32 18 -16 18 C-14.6415798 14.95667235 -13.11536976 12.87690849 -10.7421875 10.546875 C-10.11699219 9.928125 -9.49179688 9.309375 -8.84765625 8.671875 C-8.19667969 8.03765625 -7.54570313 7.4034375 -6.875 6.75 C-6.21628906 6.1003125 -5.55757812 5.450625 -4.87890625 4.78125 C-3.25703357 3.18288273 -1.6306719 1.58938103 0 0 Z " fill="#4C6A94" transform="translate(82,44)"/>
<path d="M0 0 C0 1.98 0 3.96 0 6 C0.99 6 1.98 6 3 6 C3 4.68 3 3.36 3 2 C3.66 2 4.32 2 5 2 C5 3.98 5 5.96 5 8 C-1.52307692 7.38461538 -1.52307692 7.38461538 -3.9375 5.4375 C-4.4634375 4.7259375 -4.4634375 4.7259375 -5 4 C-1.125 0 -1.125 0 0 0 Z " fill="#3486D0" transform="translate(42,50)"/>
<path d="M0 0 C3.3 0.66 6.6 1.32 10 2 C10.33 2.99 10.66 3.98 11 5 C8.66666667 5 6.33333333 5 4 5 C3.67 5.66 3.34 6.32 3 7 C2.67 6.34 2.34 5.68 2 5 C1.01 4.34 0.02 3.68 -1 3 C-0.67 2.01 -0.34 1.02 0 0 Z " fill="#222032" transform="translate(52,37)"/>
<path d="M0 0 C1.04449911 3.13349732 0.93423645 3.98968256 0 7 C-2 6 -2 6 -3 4 C-3 4.99 -3 5.98 -3 7 C-5.97 6.505 -5.97 6.505 -9 6 C-9.33 7.32 -9.66 8.64 -10 10 C-10.66 9.34 -11.32 8.68 -12 8 C-11.375 6.125 -11.375 6.125 -10 4 C-6.38181456 2.42687589 -3.97906647 2 0 2 C0 1.34 0 0.68 0 0 Z " fill="#1A2138" transform="translate(22,24)"/>
<path d="M0 0 C0.33 0 0.66 0 1 0 C1 3.3 1 6.6 1 10 C2.98 10 4.96 10 7 10 C6.01 11.485 6.01 11.485 5 13 C5 12.34 5 11.68 5 11 C4.34 11 3.68 11 3 11 C2.34 12.65 1.68 14.3 1 16 C0.67 16 0.34 16 0 16 C-0.19672365 14.27185839 -0.38196799 12.54240803 -0.5625 10.8125 C-0.71912109 9.36810547 -0.71912109 9.36810547 -0.87890625 7.89453125 C-0.99758751 5.05766623 -0.67765639 2.74576329 0 0 Z " fill="#090B11" transform="translate(52,67)"/>
<path d="M0 0 C0.99 0 1.98 0 3 0 C3.33 2.31 3.66 4.62 4 7 C3.67 7 3.34 7 3 7 C2.67 8.65 2.34 10.3 2 12 C1.34 12 0.68 12 0 12 C0 8.04 0 4.08 0 0 Z " fill="#D9DBDD" transform="translate(17,64)"/>
<path d="M0 0 C0.33 1.32 0.66 2.64 1 4 C2.32 4 3.64 4 5 4 C5 4.66 5 5.32 5 6 C4.01 6.495 4.01 6.495 3 7 C3.99 8.485 3.99 8.485 5 10 C4.01 10.66 3.02 11.32 2 12 C-0.19191368 9.80808632 -0.27869352 8.88522592 -1 6 C-1.66 5.34 -2.32 4.68 -3 4 C-2.34 3.67 -1.68 3.34 -1 3 C-0.67 2.01 -0.34 1.02 0 0 Z " fill="#2A3245" transform="translate(92,37)"/>
<path d="M0 0 C0.66 0.33 1.32 0.66 2 1 C2 2.65 2 4.3 2 6 C3.32 6.66 4.64 7.32 6 8 C5.67 9.32 5.34 10.64 5 12 C2.53199953 10.84826645 0.95216435 9.95216435 -1 8 C-0.96712417 5.27130593 -0.43602229 2.7033382 0 0 Z " fill="#706545" transform="translate(63,33)"/>
<path d="M0 0 C1.2065625 0.0309375 1.2065625 0.0309375 2.4375 0.0625 C0.4575 1.0525 0.4575 1.0525 -1.5625 2.0625 C-1.5625 4.7025 -1.5625 7.3425 -1.5625 10.0625 C-0.2425 10.7225 1.0775 11.3825 2.4375 12.0625 C0.77138095 12.105221 -0.89632885 12.10313832 -2.5625 12.0625 C-3.5625 11.0625 -3.5625 11.0625 -3.6953125 8.8125 C-3.69273438 7.905 -3.69015625 6.9975 -3.6875 6.0625 C-3.69007812 5.155 -3.69265625 4.2475 -3.6953125 3.3125 C-3.50465529 0.08254264 -3.25740423 0.07944888 0 0 Z " fill="#D5D7D9" transform="translate(38.5625,63.9375)"/>
<path d="M0 0 C1.32 1.32 2.64 2.64 4 4 C3.34 4 2.68 4 2 4 C2.33 6.31 2.66 8.62 3 11 C2.01 10.67 1.02 10.34 0 10 C0.33 9.01 0.66 8.02 1 7 C0.34 7 -0.32 7 -1 7 C-1.33 5.02 -1.66 3.04 -2 1 C-1.34 0.67 -0.68 0.34 0 0 Z " fill="#A2854B" transform="translate(53,45)"/>
<path d="M0 0 C0.66 1.32 1.32 2.64 2 4 C1.01 4.495 1.01 4.495 0 5 C0.33 5.99 0.66 6.98 1 8 C0.67 8.66 0.34 9.32 0 10 C-1.32 10 -2.64 10 -4 10 C-4 9.01 -4 8.02 -4 7 C-3.01 7 -2.02 7 -1 7 C-1 6.34 -1 5.68 -1 5 C-1.99 5 -2.98 5 -4 5 C-4 4.01 -4 3.02 -4 2 C-2.68 2 -1.36 2 0 2 C0 1.34 0 0.68 0 0 Z " fill="#0A0F1E" transform="translate(88,64)"/>
<path d="M0 0 C0.78375 -0.165 1.5675 -0.33 2.375 -0.5 C5.25088353 -1.04778734 7.18910462 -0.72280167 10 0 C10 0.33 10 0.66 10 1 C5.545 1.495 5.545 1.495 1 2 C0.34 3.98 -0.32 5.96 -1 8 C-2.4606285 5.35261084 -3 4.10551666 -3 1 C-3.99 0.67 -4.98 0.34 -6 0 C-3 -1 -3 -1 0 0 Z " fill="#14192B" transform="translate(77,62)"/>
<path d="M0 0 C0.99 0.99 1.98 1.98 3 3 C2.34 3 1.68 3 1 3 C1.226875 3.598125 1.45375 4.19625 1.6875 4.8125 C2 7 2 7 0.875 8.75 C-1.53854651 10.35903101 -3.15673536 10.23053497 -6 10 C-5.360625 9.4225 -4.72125 8.845 -4.0625 8.25 C-1.9768034 5.97469462 -1.49174343 4.9504606 -1 2 C-0.67 1.34 -0.34 0.68 0 0 Z " fill="#30394D" transform="translate(21,52)"/>
<path d="M0 0 C0.66 0.33 1.32 0.66 2 1 C1.67 2.65 1.34 4.3 1 6 C0.01 6 -0.98 6 -2 6 C-2 7.32 -2 8.64 -2 10 C-3.32 9.67 -4.64 9.34 -6 9 C-5.814375 8.38125 -5.62875 7.7625 -5.4375 7.125 C-4.76313824 4.95839822 -4.76313824 4.95839822 -6 3 C-4.35 3 -2.7 3 -1 3 C-0.67 2.01 -0.34 1.02 0 0 Z " fill="#14162A" transform="translate(90,35)"/>
<path d="M0 0 C3.1875 0.875 3.1875 0.875 6 2 C6.33 1.34 6.66 0.68 7 0 C7 1.32 7 2.64 7 4 C2.545 5.485 2.545 5.485 -2 7 C-2.33 5.35 -2.66 3.7 -3 2 C-2.01 1.34 -1.02 0.68 0 0 Z " fill="#47413B" transform="translate(40,20)"/>
<path d="M0 0 C2.31 0.33 4.62 0.66 7 1 C7 2.65 7 4.3 7 6 C5.68 6 4.36 6 3 6 C3 5.34 3 4.68 3 4 C2.01 3.67 1.02 3.34 0 3 C0 2.01 0 1.02 0 0 Z " fill="#8E7D5B" transform="translate(15,39)"/>
<path d="M0 0 C0.99 0 1.98 0 3 0 C3.66 0.99 4.32 1.98 5 3 C5.99 3 6.98 3 8 3 C7.01 5.97 6.02 8.94 5 12 C4.34 12 3.68 12 3 12 C3 11.01 3 10.02 3 9 C3.66 9 4.32 9 5 9 C3.63016497 5.83884224 3.0109362 5.0072908 0 3 C0.66 3 1.32 3 2 3 C2 2.34 2 1.68 2 1 C1.34 0.67 0.68 0.34 0 0 Z " fill="#43403C" transform="translate(30,25)"/>
<path d="M0 0 C2.33294775 -0.04241723 4.66702567 -0.04092937 7 0 C8.44754255 1.44754255 8.55733561 3.03962913 9 5 C8.0409375 4.7525 8.0409375 4.7525 7.0625 4.5 C4.0919668 3.77987074 4.18921634 3.93692789 1 5 C0.67 3.35 0.34 1.7 0 0 Z " fill="#C0C2C5" transform="translate(58,78)"/>
<path d="M0 0 C0 2.97 0 5.94 0 9 C-1.32 9 -2.64 9 -4 9 C-4 8.01 -4 7.02 -4 6 C-3.34 6 -2.68 6 -2 6 C-2 5.34 -2 4.68 -2 4 C-2.66 4 -3.32 4 -4 4 C-4 3.01 -4 2.02 -4 1 C-1 0 -1 0 0 0 Z " fill="#11151F" transform="translate(17,65)"/>
<path d="M0 0 C3.71599191 -0.20086443 4.77208445 -0.1519437 8 2 C8.33 1.34 8.66 0.68 9 0 C9.33 0.99 9.66 1.98 10 3 C8 4 8 4 5.5625 4.375 C2.76993365 5.05611374 1.79903313 5.82222306 0 8 C-0.66 7.67 -1.32 7.34 -2 7 C-1.2265625 6.1028125 -1.2265625 6.1028125 -0.4375 5.1875 C0.036875 4.465625 0.51125 3.74375 1 3 C0.67 2.01 0.34 1.02 0 0 Z " fill="#202235" transform="translate(80,43)"/>
<path d="M0 0 C3.73487777 0.4979837 5.81237635 0.87491756 9 3 C10.57657955 5.36486932 11.09744693 6.41531841 10.625 9.25 C10.41875 9.8275 10.2125 10.405 10 11 C8 8 8 8 8 4 C5.36 3.34 2.72 2.68 0 2 C0 1.34 0 0.68 0 0 Z " fill="#D4D5D5" transform="translate(51,24)"/>
<path d="M0 0 C0.99 0.99 1.98 1.98 3 3 C0.03 5.475 0.03 5.475 -3 8 C-3.66 6.68 -4.32 5.36 -5 4 C-3.35 2.68 -1.7 1.36 0 0 Z " fill="#2E384C" transform="translate(18,49)"/>
<path d="M0 0 C0.185625 0.9590625 0.185625 0.9590625 0.375 1.9375 C0.684375 2.9584375 0.684375 2.9584375 1 4 C1.66 4.33 2.32 4.66 3 5 C2.1875 6.9375 2.1875 6.9375 1 9 C0.01 9.33 -0.98 9.66 -2 10 C-3.125 6.25 -3.125 6.25 -2 4 C-1.34 4 -0.68 4 0 4 C0 2.68 0 1.36 0 0 Z " fill="#1B2237" transform="translate(84,79)"/>
<path d="M0 0 C1.65 0 3.3 0 5 0 C5 1.65 5 3.3 5 5 C2.69 5 0.38 5 -2 5 C-1.34 3.35 -0.68 1.7 0 0 Z " fill="#B2B4B8" transform="translate(47,78)"/>
<path d="M0 0 C1.65 0.33 3.3 0.66 5 1 C4.67 2.32 4.34 3.64 4 5 C2.35 4.67 0.7 4.34 -1 4 C-0.67 2.68 -0.34 1.36 0 0 Z " fill="#9EA0A4" transform="translate(39,78)"/>
<path d="M0 0 C1.32 0 2.64 0 4 0 C4 2.64 4 5.28 4 8 C2.68 8 1.36 8 0 8 C0 7.01 0 6.02 0 5 C0.99 5 1.98 5 3 5 C3 4.34 3 3.68 3 3 C2.01 3 1.02 3 0 3 C0 2.01 0 1.02 0 0 Z " fill="#080B14" transform="translate(56,66)"/>
<path d="M0 0 C1.66611905 -0.042721 3.33382885 -0.04063832 5 0 C6 1 6 1 6.0625 4.0625 C6.041875 5.031875 6.02125 6.00125 6 7 C4.68 6.67 3.36 6.34 2 6 C2 4.35 2 2.7 2 1 C1.34 0.67 0.68 0.34 0 0 Z " fill="#ABAEB3" transform="translate(28,64)"/>
<path d="M0 0 C0.66 0.33 1.32 0.66 2 1 C0.60667426 4.36720387 -0.9789286 5.9859524 -4 8 C-4.66 7.34 -5.32 6.68 -6 6 C-4.02 4.02 -2.04 2.04 0 0 Z " fill="#2D384D" transform="translate(71,88)"/>
<path d="M0 0 C2.64 0 5.28 0 8 0 C7.67 0.99 7.34 1.98 7 3 C5.35 3.33 3.7 3.66 2 4 C1.34 2.68 0.68 1.36 0 0 Z " fill="#E6D4AE" transform="translate(53,35)"/>
<path d="M0 0 C0.33 0 0.66 0 1 0 C1 4.95 1 9.9 1 15 C2.98 15.495 2.98 15.495 5 16 C5 16.66 5 17.32 5 18 C4.01 18 3.02 18 2 18 C2 17.34 2 16.68 2 16 C1.34 16 0.68 16 0 16 C0 10.72 0 5.44 0 0 Z " fill="#885217" transform="translate(50,26)"/>
<path d="M0 0 C0.33 1.32 0.66 2.64 1 4 C1.66 4 2.32 4 3 4 C3.33 3.01 3.66 2.02 4 1 C4 1.99 4 2.98 4 4 C4.66 4 5.32 4 6 4 C5.67 4.66 5.34 5.32 5 6 C4.01 6 3.02 6 2 6 C1.34 6.66 0.68 7.32 0 8 C-0.28875 7.38125 -0.5775 6.7625 -0.875 6.125 C-1.93720042 3.86674235 -1.93720042 3.86674235 -4 2 C-3.01 2 -2.02 2 -1 2 C-0.67 1.34 -0.34 0.68 0 0 Z " fill="#294C64" transform="translate(71,29)"/>
<path d="M0 0 C1.32 0 2.64 0 4 0 C3.67 0.99 3.34 1.98 3 3 C2.67 3 2.34 3 2 3 C1.34 4.98 0.68 6.96 0 9 C-0.66 8.34 -1.32 7.68 -2 7 C-2 5.68 -2 4.36 -2 3 C-1.34 3 -0.68 3 0 3 C0 2.01 0 1.02 0 0 Z " fill="#7D8578" transform="translate(44,14)"/>
<path d="M0 0 C0.33 0.99 0.66 1.98 1 3 C2.32 3.66 3.64 4.32 5 5 C1.7 5.33 -1.6 5.66 -5 6 C-4.01 5.67 -3.02 5.34 -2 5 C-2 3.68 -2 2.36 -2 1 C-1.34 0.67 -0.68 0.34 0 0 Z " fill="#171B26" transform="translate(33,72)"/>
<path d="M0 0 C0.6875 1.8125 0.6875 1.8125 1 4 C-0.0625 5.6875 -0.0625 5.6875 -2 7 C-5.1875 7.6875 -5.1875 7.6875 -8 8 C-8.33 6.68 -8.66 5.36 -9 4 C-6.525 4.495 -6.525 4.495 -4 5 C-2.68 3.35 -1.36 1.7 0 0 Z " fill="#765532" transform="translate(44,33)"/>
<path d="M0 0 C1.5 1.3125 1.5 1.3125 3 3 C3 3.99 3 4.98 3 6 C1.02 6.99 -0.96 7.98 -3 9 C-3.33 7.68 -3.66 6.36 -4 5 C-3.34 4.67 -2.68 4.34 -2 4 C-2 4.66 -2 5.32 -2 6 C-1.34 6 -0.68 6 0 6 C0 4.02 0 2.04 0 0 Z " fill="#556E68" transform="translate(68,22)"/>
<path d="M0 0 C0.66 0.99 1.32 1.98 2 3 C1.67 3.99 1.34 4.98 1 6 C0.01 6 -0.98 6 -2 6 C-2.66 6.66 -3.32 7.32 -4 8 C-4.66 7.34 -5.32 6.68 -6 6 C-4.71034824 4.62437146 -3.37310707 3.29233607 -2 2 C-1.34 2 -0.68 2 0 2 C0 1.34 0 0.68 0 0 Z " fill="#8FB4B2" transform="translate(67,22)"/>
<path d="M0 0 C4.2742558 1.5830577 6.26531794 4.50568404 9 8 C5.22272911 6.18690997 1.62730178 4.0926741 -2 2 C-1.34 1.34 -0.68 0.68 0 0 Z " fill="#21223A" transform="translate(60,7)"/>
<path d="M0 0 C1.65 0.33 3.3 0.66 5 1 C5 1.99 5 2.98 5 4 C1.25 5.125 1.25 5.125 -1 4 C-0.67 2.68 -0.34 1.36 0 0 Z " fill="#BCB6A3" transform="translate(28,33)"/>
<path d="M0 0 C1.65 0 3.3 0 5 0 C5 0.99 5 1.98 5 3 C5.66 3.66 6.32 4.32 7 5 C4.69 4.67 2.38 4.34 0 4 C0 2.68 0 1.36 0 0 Z " fill="#CABD9A" transform="translate(52,8)"/>
<path d="M0 0 C1.65 0 3.3 0 5 0 C4.34 1.65 3.68 3.3 3 5 C1.68 4.67 0.36 4.34 -1 4 C-0.67 2.68 -0.34 1.36 0 0 Z " fill="#9EA1A5" transform="translate(28,78)"/>
<path d="M0 0 C1.98 0 3.96 0 6 0 C6.33 1.98 6.66 3.96 7 6 C6.34 6 5.68 6 5 6 C4.71125 5.360625 4.4225 4.72125 4.125 4.0625 C3.17176549 1.84793921 3.17176549 1.84793921 1 1 C0.67 1.66 0.34 2.32 0 3 C0 2.01 0 1.02 0 0 Z " fill="#090A11" transform="translate(10,77)"/>
<path d="M0 0 C1.66611905 -0.042721 3.33382885 -0.04063832 5 0 C6 1 6 1 6.0625 3.5625 C6.041875 4.366875 6.02125 5.17125 6 6 C4.68 5.67 3.36 5.34 2 5 C2 3.68 2 2.36 2 1 C1.34 0.67 0.68 0.34 0 0 Z " fill="#AFB1B4" transform="translate(61,64)"/>
<path d="M0 0 C2.9375 0.75 2.9375 0.75 6 2 C6.875 4.125 6.875 4.125 7 6 C4.0625 5.25 4.0625 5.25 1 4 C0.125 1.875 0.125 1.875 0 0 Z " fill="#4580BE" transform="translate(64,36)"/>
<path d="M0 0 C1.98 0.495 1.98 0.495 4 1 C3.67 2.32 3.34 3.64 3 5 C1.68 4.67 0.36 4.34 -1 4 C-0.67 2.68 -0.34 1.36 0 0 Z " fill="#B3BEAD" transform="translate(9,34)"/>
<path d="M0 0 C-0.33 1.32 -0.66 2.64 -1 4 C-1.66 4 -2.32 4 -3 4 C-3 4.66 -3 5.32 -3 6 C-4.32 5.34 -5.64 4.68 -7 4 C-3.375 0 -3.375 0 0 0 Z " fill="#2A324C" transform="translate(25,20)"/>
<path d="M0 0 C0.66 0 1.32 0 2 0 C2 3.96 2 7.92 2 12 C1.67 12 1.34 12 1 12 C1 10.02 1 8.04 1 6 C0.34 6 -0.32 6 -1 6 C-0.67 4.02 -0.34 2.04 0 0 Z " fill="#F7F9F8" transform="translate(24,64)"/>
<path d="M0 0 C0 0.99 0 1.98 0 3 C-3 5.1875 -3 5.1875 -6 7 C-6.99 5.35 -7.98 3.7 -9 2 C-8.34 2 -7.68 2 -7 2 C-7 2.66 -7 3.32 -7 4 C-4.08482708 2.92598892 -2.22189824 2.22189824 0 0 Z " fill="#77C3DE" transform="translate(36,41)"/>
<path d="M0 0 C-0.33 0.66 -0.66 1.32 -1 2 C-2.98 2 -4.96 2 -7 2 C-7 2.66 -7 3.32 -7 4 C-7.66 4 -8.32 4 -9 4 C-6.73455663 -1.01633889 -5.27613404 -1.24961069 0 0 Z " fill="#DBDCDD" transform="translate(48,25)"/>
<path d="M0 0 C0.99 0.33 1.98 0.66 3 1 C3.33 2.98 3.66 4.96 4 7 C2.68 6.67 1.36 6.34 0 6 C0 4.02 0 2.04 0 0 Z " fill="#8A7E5F" transform="translate(53,16)"/>
<path d="M0 0 C-1.65 1.32 -3.3 2.64 -5 4 C-5.99 3.34 -6.98 2.68 -8 2 C-7.34 2 -6.68 2 -6 2 C-6 1.34 -6 0.68 -6 0 C-3.50907189 -1.24546405 -2.58919267 -0.7767578 0 0 Z " fill="#222D3F" transform="translate(80,85)"/>
<path d="M0 0 C0.33 0 0.66 0 1 0 C1.2226746 1.43534841 1.42761906 2.87345525 1.625 4.3125 C1.74101563 5.11300781 1.85703125 5.91351563 1.9765625 6.73828125 C2 9 2 9 0 12 C-1.28571429 3.42857143 -1.28571429 3.42857143 0 0 Z " fill="#C2C5C9" transform="translate(46,64)"/>
<path d="M0 0 C1.32 0.66 2.64 1.32 4 2 C3.67 2.99 3.34 3.98 3 5 C1.68 4.67 0.36 4.34 -1 4 C-0.67 2.68 -0.34 1.36 0 0 Z " fill="#82B0C6" transform="translate(48,58)"/>
<path d="M0 0 C-1.485 1.98 -1.485 1.98 -3 4 C-4.32 3.67 -5.64 3.34 -7 3 C-7 2.34 -7 1.68 -7 1 C-4.53721199 -0.231394 -2.7204945 -0.07159196 0 0 Z " fill="#ECDCB6" transform="translate(43,35)"/>
<path d="M0 0 C0.99 0.33 1.98 0.66 3 1 C2.67 3.31 2.34 5.62 2 8 C1.34 8 0.68 8 0 8 C0 5.36 0 2.72 0 0 Z " fill="#1C1E2B" transform="translate(52,27)"/>
<path d="M0 0 C-0.33 1.32 -0.66 2.64 -1 4 C-1.99 3.67 -2.98 3.34 -4 3 C-4.33 3.99 -4.66 4.98 -5 6 C-5.66 6 -6.32 6 -7 6 C-5.52522876 2.59668175 -4.14385429 0 0 0 Z " fill="#61AFDF" transform="translate(71,28)"/>
<path d="M0 0 C2.46800047 1.15173355 4.04783565 2.04783565 6 4 C6 5.32 6 6.64 6 8 C5.34 8 4.68 8 4 8 C4 7.34 4 6.68 4 6 C3.01 5.67 2.02 5.34 1 5 C1.66 4.67 2.32 4.34 3 4 C2.01 2.68 1.02 1.36 0 0 Z " fill="#262F49" transform="translate(82,23)"/>
<path d="M0 0 C0.268125 0.598125 0.53625 1.19625 0.8125 1.8125 C1.98493467 3.97224808 3.19369282 5.35790256 5 7 C4.34 7 3.68 7 3 7 C2.67 7.66 2.34 8.32 2 9 C2 8.34 2 7.68 2 7 C0.68 6.34 -0.64 5.68 -2 5 C-1.34 5 -0.68 5 0 5 C0 3.35 0 1.7 0 0 Z " fill="#52565F" transform="translate(73,71)"/>
<path d="M0 0 C1.32 1.65 2.64 3.3 4 5 C2.02 5.66 0.04 6.32 -2 7 C-1.34 4.69 -0.68 2.38 0 0 Z " fill="#1A1527" transform="translate(76,42)"/>
<path d="M0 0 C0.99 0 1.98 0 3 0 C3.33 2.97 3.66 5.94 4 9 C1.49701566 6.06171403 0.53069061 3.82097239 0 0 Z " fill="#B1A172" transform="translate(24,39)"/>
<path d="M0 0 C0.66 0 1.32 0 2 0 C2.66 1.65 3.32 3.3 4 5 C2.02 5 0.04 5 -2 5 C-1.34 3.35 -0.68 1.7 0 0 Z " fill="#171C29" transform="translate(39,30)"/>
<path d="M0 0 C0.99 0.33 1.98 0.66 3 1 C2.01 1.495 2.01 1.495 1 2 C1.99 2.66 2.98 3.32 4 4 C3.67 4.99 3.34 5.98 3 7 C0 5 0 5 -2 2 C-1.34 1.34 -0.68 0.68 0 0 Z " fill="#748078" transform="translate(37,14)"/>
<path d="M0 0 C1.32 0.66 2.64 1.32 4 2 C3.01 3.485 3.01 3.485 2 5 C1.01 4.67 0.02 4.34 -1 4 C-0.67 2.68 -0.34 1.36 0 0 Z " fill="#AC935F" transform="translate(48,52)"/>
<path d="M0 0 C4.42857143 5.14285714 4.42857143 5.14285714 5 9 C2.33264727 6.51047079 0.44253657 4.36591866 -1 1 C-0.67 0.67 -0.34 0.34 0 0 Z " fill="#1E223D" transform="translate(24,48)"/>
<path d="M0 0 C3 3.75 3 3.75 3 6 C1.35 6 -0.3 6 -2 6 C-1.34 4.02 -0.68 2.04 0 0 Z " fill="#171B26" transform="translate(58,29)"/>
<path d="M0 0 C0.66 0.33 1.32 0.66 2 1 C1.6875 2.9375 1.6875 2.9375 1 5 C0.01 5.33 -0.98 5.66 -2 6 C-2 4.35 -2 2.7 -2 1 C-1.34 0.67 -0.68 0.34 0 0 Z " fill="#B6AD8D" transform="translate(49,19)"/>
<path d="M0 0 C0.99 0.33 1.98 0.66 3 1 C2.34 3.31 1.68 5.62 1 8 C0.34 7.67 -0.32 7.34 -1 7 C-0.67 4.69 -0.34 2.38 0 0 Z " fill="#A0D8DD" transform="translate(57,14)"/>
</svg>
